%TF.GenerationSoftware,KiCad,Pcbnew,9.0.5-9.0.5~ubuntu24.04.1*%
%TF.CreationDate,2025-11-18T16:55:04+01:00*%
%TF.ProjectId,Nodo 2 MySensor,4e6f646f-2032-4204-9d79-53656e736f72,rev?*%
%TF.SameCoordinates,Original*%
%TF.FileFunction,Other,User*%
%FSLAX46Y46*%
G04 Gerber Fmt 4.6, Leading zero omitted, Abs format (unit mm)*
G04 Created by KiCad (PCBNEW 9.0.5-9.0.5~ubuntu24.04.1) date 2025-11-18 16:55:04*
%MOMM*%
%LPD*%
G01*
G04 APERTURE LIST*
%ADD10C,0.050000*%
G04 APERTURE END LIST*
D10*
%TO.C,J8*%
X91630000Y-65847500D02*
X91630000Y-80347500D01*
X91630000Y-80347500D02*
X100030000Y-80347500D01*
X100030000Y-65847500D02*
X91630000Y-65847500D01*
X100030000Y-80347500D02*
X100030000Y-65847500D01*
%TO.C,J2*%
X110890000Y-84611000D02*
X110890000Y-88211000D01*
X110890000Y-88211000D02*
X117040000Y-88211000D01*
X117040000Y-84611000D02*
X110890000Y-84611000D01*
X117040000Y-88211000D02*
X117040000Y-84611000D01*
%TO.C,J5*%
X138625000Y-82890000D02*
X138625000Y-99130000D01*
X138625000Y-99130000D02*
X145445000Y-99130000D01*
X145445000Y-82890000D02*
X138625000Y-82890000D01*
X145445000Y-99130000D02*
X145445000Y-82890000D01*
%TO.C,J4*%
X83345000Y-82580000D02*
X83345000Y-98820000D01*
X83345000Y-98820000D02*
X90165000Y-98820000D01*
X90165000Y-82580000D02*
X83345000Y-82580000D01*
X90165000Y-98820000D02*
X90165000Y-82580000D01*
%TO.C,J1*%
X90777000Y-82960000D02*
X90777000Y-99260000D01*
X90777000Y-99260000D02*
X103127000Y-99260000D01*
X103127000Y-82960000D02*
X90777000Y-82960000D01*
X103127000Y-99260000D02*
X103127000Y-82960000D01*
%TO.C,U1*%
X122030000Y-65845000D02*
X122030000Y-77595000D01*
X122030000Y-77595000D02*
X133190000Y-77595000D01*
X133190000Y-65845000D02*
X122030000Y-65845000D01*
X133190000Y-77595000D02*
X133190000Y-65845000D01*
%TD*%
M02*
