%TF.GenerationSoftware,KiCad,Pcbnew,9.0.5-9.0.5~ubuntu24.04.1*%
%TF.CreationDate,2025-11-18T16:55:04+01:00*%
%TF.ProjectId,Nodo 2 MySensor,4e6f646f-2032-4204-9d79-53656e736f72,rev?*%
%TF.SameCoordinates,Original*%
%TF.FileFunction,AssemblyDrawing,Top*%
%FSLAX46Y46*%
G04 Gerber Fmt 4.6, Leading zero omitted, Abs format (unit mm)*
G04 Created by KiCad (PCBNEW 9.0.5-9.0.5~ubuntu24.04.1) date 2025-11-18 16:55:04*
%MOMM*%
%LPD*%
G01*
G04 APERTURE LIST*
%ADD10C,0.150000*%
%ADD11C,0.127000*%
%ADD12C,0.200000*%
%ADD13C,0.100000*%
G04 APERTURE END LIST*
D10*
X127197200Y-72094285D02*
X127244819Y-71951428D01*
X127244819Y-71951428D02*
X127244819Y-71713333D01*
X127244819Y-71713333D02*
X127197200Y-71618095D01*
X127197200Y-71618095D02*
X127149580Y-71570476D01*
X127149580Y-71570476D02*
X127054342Y-71522857D01*
X127054342Y-71522857D02*
X126959104Y-71522857D01*
X126959104Y-71522857D02*
X126863866Y-71570476D01*
X126863866Y-71570476D02*
X126816247Y-71618095D01*
X126816247Y-71618095D02*
X126768628Y-71713333D01*
X126768628Y-71713333D02*
X126721009Y-71903809D01*
X126721009Y-71903809D02*
X126673390Y-71999047D01*
X126673390Y-71999047D02*
X126625771Y-72046666D01*
X126625771Y-72046666D02*
X126530533Y-72094285D01*
X126530533Y-72094285D02*
X126435295Y-72094285D01*
X126435295Y-72094285D02*
X126340057Y-72046666D01*
X126340057Y-72046666D02*
X126292438Y-71999047D01*
X126292438Y-71999047D02*
X126244819Y-71903809D01*
X126244819Y-71903809D02*
X126244819Y-71665714D01*
X126244819Y-71665714D02*
X126292438Y-71522857D01*
X126101961Y-71808571D02*
X127387676Y-71808571D01*
X127625771Y-70808571D02*
X127625771Y-70856190D01*
X127625771Y-70856190D02*
X127578152Y-70951428D01*
X127578152Y-70951428D02*
X127482914Y-70999047D01*
X127482914Y-70999047D02*
X127006723Y-70999047D01*
X127006723Y-70999047D02*
X126911485Y-71046666D01*
X126911485Y-71046666D02*
X126863866Y-71141904D01*
X126863866Y-71141904D02*
X126816247Y-71046666D01*
X126816247Y-71046666D02*
X126721009Y-70999047D01*
X126721009Y-70999047D02*
X126244819Y-70999047D01*
X126244819Y-70999047D02*
X126149580Y-70951428D01*
X126149580Y-70951428D02*
X126101961Y-70856190D01*
X126101961Y-70856190D02*
X126101961Y-70808571D01*
X127244819Y-69856190D02*
X126768628Y-70189523D01*
X127244819Y-70427618D02*
X126244819Y-70427618D01*
X126244819Y-70427618D02*
X126244819Y-70046666D01*
X126244819Y-70046666D02*
X126292438Y-69951428D01*
X126292438Y-69951428D02*
X126340057Y-69903809D01*
X126340057Y-69903809D02*
X126435295Y-69856190D01*
X126435295Y-69856190D02*
X126578152Y-69856190D01*
X126578152Y-69856190D02*
X126673390Y-69903809D01*
X126673390Y-69903809D02*
X126721009Y-69951428D01*
X126721009Y-69951428D02*
X126768628Y-70046666D01*
X126768628Y-70046666D02*
X126768628Y-70427618D01*
X126721009Y-69427618D02*
X126721009Y-69094285D01*
X127244819Y-68951428D02*
X127244819Y-69427618D01*
X127244819Y-69427618D02*
X126244819Y-69427618D01*
X126244819Y-69427618D02*
X126244819Y-68951428D01*
X126721009Y-68189523D02*
X126721009Y-68522856D01*
X127244819Y-68522856D02*
X126244819Y-68522856D01*
X126244819Y-68522856D02*
X126244819Y-68046666D01*
X126721009Y-67665713D02*
X126721009Y-67332380D01*
X127244819Y-67189523D02*
X127244819Y-67665713D01*
X127244819Y-67665713D02*
X126244819Y-67665713D01*
X126244819Y-67665713D02*
X126244819Y-67189523D01*
X127244819Y-66189523D02*
X126768628Y-66522856D01*
X127244819Y-66760951D02*
X126244819Y-66760951D01*
X126244819Y-66760951D02*
X126244819Y-66379999D01*
X126244819Y-66379999D02*
X126292438Y-66284761D01*
X126292438Y-66284761D02*
X126340057Y-66237142D01*
X126340057Y-66237142D02*
X126435295Y-66189523D01*
X126435295Y-66189523D02*
X126578152Y-66189523D01*
X126578152Y-66189523D02*
X126673390Y-66237142D01*
X126673390Y-66237142D02*
X126721009Y-66284761D01*
X126721009Y-66284761D02*
X126768628Y-66379999D01*
X126768628Y-66379999D02*
X126768628Y-66760951D01*
X126721009Y-65760951D02*
X126721009Y-65427618D01*
X127244819Y-65284761D02*
X127244819Y-65760951D01*
X127244819Y-65760951D02*
X126244819Y-65760951D01*
X126244819Y-65760951D02*
X126244819Y-65284761D01*
X127244819Y-64856189D02*
X126244819Y-64856189D01*
X126244819Y-64856189D02*
X127244819Y-64284761D01*
X127244819Y-64284761D02*
X126244819Y-64284761D01*
X127149580Y-63237142D02*
X127197200Y-63284761D01*
X127197200Y-63284761D02*
X127244819Y-63427618D01*
X127244819Y-63427618D02*
X127244819Y-63522856D01*
X127244819Y-63522856D02*
X127197200Y-63665713D01*
X127197200Y-63665713D02*
X127101961Y-63760951D01*
X127101961Y-63760951D02*
X127006723Y-63808570D01*
X127006723Y-63808570D02*
X126816247Y-63856189D01*
X126816247Y-63856189D02*
X126673390Y-63856189D01*
X126673390Y-63856189D02*
X126482914Y-63808570D01*
X126482914Y-63808570D02*
X126387676Y-63760951D01*
X126387676Y-63760951D02*
X126292438Y-63665713D01*
X126292438Y-63665713D02*
X126244819Y-63522856D01*
X126244819Y-63522856D02*
X126244819Y-63427618D01*
X126244819Y-63427618D02*
X126292438Y-63284761D01*
X126292438Y-63284761D02*
X126340057Y-63237142D01*
X126721009Y-62808570D02*
X126721009Y-62475237D01*
X127244819Y-62332380D02*
X127244819Y-62808570D01*
X127244819Y-62808570D02*
X126244819Y-62808570D01*
X126244819Y-62808570D02*
X126244819Y-62332380D01*
X127625771Y-61999046D02*
X127625771Y-61951427D01*
X127625771Y-61951427D02*
X127578152Y-61856189D01*
X127578152Y-61856189D02*
X127482914Y-61808570D01*
X127482914Y-61808570D02*
X127006723Y-61808570D01*
X127006723Y-61808570D02*
X126911485Y-61760951D01*
X126911485Y-61760951D02*
X126863866Y-61665713D01*
X126863866Y-61665713D02*
X126816247Y-61760951D01*
X126816247Y-61760951D02*
X126721009Y-61808570D01*
X126721009Y-61808570D02*
X126244819Y-61808570D01*
X126244819Y-61808570D02*
X126149580Y-61856189D01*
X126149580Y-61856189D02*
X126101961Y-61951427D01*
X126101961Y-61951427D02*
X126101961Y-61999046D01*
X63925057Y-137151547D02*
X63877438Y-137103928D01*
X63877438Y-137103928D02*
X63829819Y-137008690D01*
X63829819Y-137008690D02*
X63829819Y-136770595D01*
X63829819Y-136770595D02*
X63877438Y-136675357D01*
X63877438Y-136675357D02*
X63925057Y-136627738D01*
X63925057Y-136627738D02*
X64020295Y-136580119D01*
X64020295Y-136580119D02*
X64115533Y-136580119D01*
X64115533Y-136580119D02*
X64258390Y-136627738D01*
X64258390Y-136627738D02*
X64829819Y-137199166D01*
X64829819Y-137199166D02*
X64829819Y-136580119D01*
X63829819Y-135961071D02*
X63829819Y-135865833D01*
X63829819Y-135865833D02*
X63877438Y-135770595D01*
X63877438Y-135770595D02*
X63925057Y-135722976D01*
X63925057Y-135722976D02*
X64020295Y-135675357D01*
X64020295Y-135675357D02*
X64210771Y-135627738D01*
X64210771Y-135627738D02*
X64448866Y-135627738D01*
X64448866Y-135627738D02*
X64639342Y-135675357D01*
X64639342Y-135675357D02*
X64734580Y-135722976D01*
X64734580Y-135722976D02*
X64782200Y-135770595D01*
X64782200Y-135770595D02*
X64829819Y-135865833D01*
X64829819Y-135865833D02*
X64829819Y-135961071D01*
X64829819Y-135961071D02*
X64782200Y-136056309D01*
X64782200Y-136056309D02*
X64734580Y-136103928D01*
X64734580Y-136103928D02*
X64639342Y-136151547D01*
X64639342Y-136151547D02*
X64448866Y-136199166D01*
X64448866Y-136199166D02*
X64210771Y-136199166D01*
X64210771Y-136199166D02*
X64020295Y-136151547D01*
X64020295Y-136151547D02*
X63925057Y-136103928D01*
X63925057Y-136103928D02*
X63877438Y-136056309D01*
X63877438Y-136056309D02*
X63829819Y-135961071D01*
X63829819Y-134770595D02*
X63829819Y-134961071D01*
X63829819Y-134961071D02*
X63877438Y-135056309D01*
X63877438Y-135056309D02*
X63925057Y-135103928D01*
X63925057Y-135103928D02*
X64067914Y-135199166D01*
X64067914Y-135199166D02*
X64258390Y-135246785D01*
X64258390Y-135246785D02*
X64639342Y-135246785D01*
X64639342Y-135246785D02*
X64734580Y-135199166D01*
X64734580Y-135199166D02*
X64782200Y-135151547D01*
X64782200Y-135151547D02*
X64829819Y-135056309D01*
X64829819Y-135056309D02*
X64829819Y-134865833D01*
X64829819Y-134865833D02*
X64782200Y-134770595D01*
X64782200Y-134770595D02*
X64734580Y-134722976D01*
X64734580Y-134722976D02*
X64639342Y-134675357D01*
X64639342Y-134675357D02*
X64401247Y-134675357D01*
X64401247Y-134675357D02*
X64306009Y-134722976D01*
X64306009Y-134722976D02*
X64258390Y-134770595D01*
X64258390Y-134770595D02*
X64210771Y-134865833D01*
X64210771Y-134865833D02*
X64210771Y-135056309D01*
X64210771Y-135056309D02*
X64258390Y-135151547D01*
X64258390Y-135151547D02*
X64306009Y-135199166D01*
X64306009Y-135199166D02*
X64401247Y-135246785D01*
X63829819Y-134056309D02*
X63829819Y-133961071D01*
X63829819Y-133961071D02*
X63877438Y-133865833D01*
X63877438Y-133865833D02*
X63925057Y-133818214D01*
X63925057Y-133818214D02*
X64020295Y-133770595D01*
X64020295Y-133770595D02*
X64210771Y-133722976D01*
X64210771Y-133722976D02*
X64448866Y-133722976D01*
X64448866Y-133722976D02*
X64639342Y-133770595D01*
X64639342Y-133770595D02*
X64734580Y-133818214D01*
X64734580Y-133818214D02*
X64782200Y-133865833D01*
X64782200Y-133865833D02*
X64829819Y-133961071D01*
X64829819Y-133961071D02*
X64829819Y-134056309D01*
X64829819Y-134056309D02*
X64782200Y-134151547D01*
X64782200Y-134151547D02*
X64734580Y-134199166D01*
X64734580Y-134199166D02*
X64639342Y-134246785D01*
X64639342Y-134246785D02*
X64448866Y-134294404D01*
X64448866Y-134294404D02*
X64210771Y-134294404D01*
X64210771Y-134294404D02*
X64020295Y-134246785D01*
X64020295Y-134246785D02*
X63925057Y-134199166D01*
X63925057Y-134199166D02*
X63877438Y-134151547D01*
X63877438Y-134151547D02*
X63829819Y-134056309D01*
X64448866Y-133294404D02*
X64448866Y-132532500D01*
X64163152Y-131627738D02*
X64829819Y-131627738D01*
X63782200Y-131865833D02*
X64496485Y-132103928D01*
X64496485Y-132103928D02*
X64496485Y-131484881D01*
X63829819Y-130627738D02*
X63829819Y-131103928D01*
X63829819Y-131103928D02*
X64306009Y-131151547D01*
X64306009Y-131151547D02*
X64258390Y-131103928D01*
X64258390Y-131103928D02*
X64210771Y-131008690D01*
X64210771Y-131008690D02*
X64210771Y-130770595D01*
X64210771Y-130770595D02*
X64258390Y-130675357D01*
X64258390Y-130675357D02*
X64306009Y-130627738D01*
X64306009Y-130627738D02*
X64401247Y-130580119D01*
X64401247Y-130580119D02*
X64639342Y-130580119D01*
X64639342Y-130580119D02*
X64734580Y-130627738D01*
X64734580Y-130627738D02*
X64782200Y-130675357D01*
X64782200Y-130675357D02*
X64829819Y-130770595D01*
X64829819Y-130770595D02*
X64829819Y-131008690D01*
X64829819Y-131008690D02*
X64782200Y-131103928D01*
X64782200Y-131103928D02*
X64734580Y-131151547D01*
X63925057Y-130199166D02*
X63877438Y-130151547D01*
X63877438Y-130151547D02*
X63829819Y-130056309D01*
X63829819Y-130056309D02*
X63829819Y-129818214D01*
X63829819Y-129818214D02*
X63877438Y-129722976D01*
X63877438Y-129722976D02*
X63925057Y-129675357D01*
X63925057Y-129675357D02*
X64020295Y-129627738D01*
X64020295Y-129627738D02*
X64115533Y-129627738D01*
X64115533Y-129627738D02*
X64258390Y-129675357D01*
X64258390Y-129675357D02*
X64829819Y-130246785D01*
X64829819Y-130246785D02*
X64829819Y-129627738D01*
X64925057Y-129437262D02*
X64925057Y-128675357D01*
X64829819Y-128389642D02*
X64829819Y-128199166D01*
X64829819Y-128199166D02*
X64782200Y-128103928D01*
X64782200Y-128103928D02*
X64734580Y-128056309D01*
X64734580Y-128056309D02*
X64591723Y-127961071D01*
X64591723Y-127961071D02*
X64401247Y-127913452D01*
X64401247Y-127913452D02*
X64020295Y-127913452D01*
X64020295Y-127913452D02*
X63925057Y-127961071D01*
X63925057Y-127961071D02*
X63877438Y-128008690D01*
X63877438Y-128008690D02*
X63829819Y-128103928D01*
X63829819Y-128103928D02*
X63829819Y-128294404D01*
X63829819Y-128294404D02*
X63877438Y-128389642D01*
X63877438Y-128389642D02*
X63925057Y-128437261D01*
X63925057Y-128437261D02*
X64020295Y-128484880D01*
X64020295Y-128484880D02*
X64258390Y-128484880D01*
X64258390Y-128484880D02*
X64353628Y-128437261D01*
X64353628Y-128437261D02*
X64401247Y-128389642D01*
X64401247Y-128389642D02*
X64448866Y-128294404D01*
X64448866Y-128294404D02*
X64448866Y-128103928D01*
X64448866Y-128103928D02*
X64401247Y-128008690D01*
X64401247Y-128008690D02*
X64353628Y-127961071D01*
X64353628Y-127961071D02*
X64258390Y-127913452D01*
X64829819Y-127437261D02*
X64829819Y-127246785D01*
X64829819Y-127246785D02*
X64782200Y-127151547D01*
X64782200Y-127151547D02*
X64734580Y-127103928D01*
X64734580Y-127103928D02*
X64591723Y-127008690D01*
X64591723Y-127008690D02*
X64401247Y-126961071D01*
X64401247Y-126961071D02*
X64020295Y-126961071D01*
X64020295Y-126961071D02*
X63925057Y-127008690D01*
X63925057Y-127008690D02*
X63877438Y-127056309D01*
X63877438Y-127056309D02*
X63829819Y-127151547D01*
X63829819Y-127151547D02*
X63829819Y-127342023D01*
X63829819Y-127342023D02*
X63877438Y-127437261D01*
X63877438Y-127437261D02*
X63925057Y-127484880D01*
X63925057Y-127484880D02*
X64020295Y-127532499D01*
X64020295Y-127532499D02*
X64258390Y-127532499D01*
X64258390Y-127532499D02*
X64353628Y-127484880D01*
X64353628Y-127484880D02*
X64401247Y-127437261D01*
X64401247Y-127437261D02*
X64448866Y-127342023D01*
X64448866Y-127342023D02*
X64448866Y-127151547D01*
X64448866Y-127151547D02*
X64401247Y-127056309D01*
X64401247Y-127056309D02*
X64353628Y-127008690D01*
X64353628Y-127008690D02*
X64258390Y-126961071D01*
X64258390Y-126389642D02*
X64210771Y-126484880D01*
X64210771Y-126484880D02*
X64163152Y-126532499D01*
X64163152Y-126532499D02*
X64067914Y-126580118D01*
X64067914Y-126580118D02*
X64020295Y-126580118D01*
X64020295Y-126580118D02*
X63925057Y-126532499D01*
X63925057Y-126532499D02*
X63877438Y-126484880D01*
X63877438Y-126484880D02*
X63829819Y-126389642D01*
X63829819Y-126389642D02*
X63829819Y-126199166D01*
X63829819Y-126199166D02*
X63877438Y-126103928D01*
X63877438Y-126103928D02*
X63925057Y-126056309D01*
X63925057Y-126056309D02*
X64020295Y-126008690D01*
X64020295Y-126008690D02*
X64067914Y-126008690D01*
X64067914Y-126008690D02*
X64163152Y-126056309D01*
X64163152Y-126056309D02*
X64210771Y-126103928D01*
X64210771Y-126103928D02*
X64258390Y-126199166D01*
X64258390Y-126199166D02*
X64258390Y-126389642D01*
X64258390Y-126389642D02*
X64306009Y-126484880D01*
X64306009Y-126484880D02*
X64353628Y-126532499D01*
X64353628Y-126532499D02*
X64448866Y-126580118D01*
X64448866Y-126580118D02*
X64639342Y-126580118D01*
X64639342Y-126580118D02*
X64734580Y-126532499D01*
X64734580Y-126532499D02*
X64782200Y-126484880D01*
X64782200Y-126484880D02*
X64829819Y-126389642D01*
X64829819Y-126389642D02*
X64829819Y-126199166D01*
X64829819Y-126199166D02*
X64782200Y-126103928D01*
X64782200Y-126103928D02*
X64734580Y-126056309D01*
X64734580Y-126056309D02*
X64639342Y-126008690D01*
X64639342Y-126008690D02*
X64448866Y-126008690D01*
X64448866Y-126008690D02*
X64353628Y-126056309D01*
X64353628Y-126056309D02*
X64306009Y-126103928D01*
X64306009Y-126103928D02*
X64258390Y-126199166D01*
X64448866Y-125580118D02*
X64448866Y-124818214D01*
X64163152Y-123913452D02*
X64829819Y-123913452D01*
X63782200Y-124151547D02*
X64496485Y-124389642D01*
X64496485Y-124389642D02*
X64496485Y-123770595D01*
X63829819Y-123199166D02*
X63829819Y-123103928D01*
X63829819Y-123103928D02*
X63877438Y-123008690D01*
X63877438Y-123008690D02*
X63925057Y-122961071D01*
X63925057Y-122961071D02*
X64020295Y-122913452D01*
X64020295Y-122913452D02*
X64210771Y-122865833D01*
X64210771Y-122865833D02*
X64448866Y-122865833D01*
X64448866Y-122865833D02*
X64639342Y-122913452D01*
X64639342Y-122913452D02*
X64734580Y-122961071D01*
X64734580Y-122961071D02*
X64782200Y-123008690D01*
X64782200Y-123008690D02*
X64829819Y-123103928D01*
X64829819Y-123103928D02*
X64829819Y-123199166D01*
X64829819Y-123199166D02*
X64782200Y-123294404D01*
X64782200Y-123294404D02*
X64734580Y-123342023D01*
X64734580Y-123342023D02*
X64639342Y-123389642D01*
X64639342Y-123389642D02*
X64448866Y-123437261D01*
X64448866Y-123437261D02*
X64210771Y-123437261D01*
X64210771Y-123437261D02*
X64020295Y-123389642D01*
X64020295Y-123389642D02*
X63925057Y-123342023D01*
X63925057Y-123342023D02*
X63877438Y-123294404D01*
X63877438Y-123294404D02*
X63829819Y-123199166D01*
X64163152Y-122008690D02*
X64829819Y-122008690D01*
X63782200Y-122246785D02*
X64496485Y-122484880D01*
X64496485Y-122484880D02*
X64496485Y-121865833D01*
X110824819Y-87387189D02*
X109824819Y-87387189D01*
X109920057Y-86958618D02*
X109872438Y-86910999D01*
X109872438Y-86910999D02*
X109824819Y-86815761D01*
X109824819Y-86815761D02*
X109824819Y-86577666D01*
X109824819Y-86577666D02*
X109872438Y-86482428D01*
X109872438Y-86482428D02*
X109920057Y-86434809D01*
X109920057Y-86434809D02*
X110015295Y-86387190D01*
X110015295Y-86387190D02*
X110110533Y-86387190D01*
X110110533Y-86387190D02*
X110253390Y-86434809D01*
X110253390Y-86434809D02*
X110824819Y-87006237D01*
X110824819Y-87006237D02*
X110824819Y-86387190D01*
X110729580Y-85387190D02*
X110777200Y-85434809D01*
X110777200Y-85434809D02*
X110824819Y-85577666D01*
X110824819Y-85577666D02*
X110824819Y-85672904D01*
X110824819Y-85672904D02*
X110777200Y-85815761D01*
X110777200Y-85815761D02*
X110681961Y-85910999D01*
X110681961Y-85910999D02*
X110586723Y-85958618D01*
X110586723Y-85958618D02*
X110396247Y-86006237D01*
X110396247Y-86006237D02*
X110253390Y-86006237D01*
X110253390Y-86006237D02*
X110062914Y-85958618D01*
X110062914Y-85958618D02*
X109967676Y-85910999D01*
X109967676Y-85910999D02*
X109872438Y-85815761D01*
X109872438Y-85815761D02*
X109824819Y-85672904D01*
X109824819Y-85672904D02*
X109824819Y-85577666D01*
X109824819Y-85577666D02*
X109872438Y-85434809D01*
X109872438Y-85434809D02*
X109920057Y-85387190D01*
X113636666Y-85865819D02*
X113636666Y-86580104D01*
X113636666Y-86580104D02*
X113589047Y-86722961D01*
X113589047Y-86722961D02*
X113493809Y-86818200D01*
X113493809Y-86818200D02*
X113350952Y-86865819D01*
X113350952Y-86865819D02*
X113255714Y-86865819D01*
X114065238Y-85961057D02*
X114112857Y-85913438D01*
X114112857Y-85913438D02*
X114208095Y-85865819D01*
X114208095Y-85865819D02*
X114446190Y-85865819D01*
X114446190Y-85865819D02*
X114541428Y-85913438D01*
X114541428Y-85913438D02*
X114589047Y-85961057D01*
X114589047Y-85961057D02*
X114636666Y-86056295D01*
X114636666Y-86056295D02*
X114636666Y-86151533D01*
X114636666Y-86151533D02*
X114589047Y-86294390D01*
X114589047Y-86294390D02*
X114017619Y-86865819D01*
X114017619Y-86865819D02*
X114636666Y-86865819D01*
X136725475Y-82639580D02*
X136677856Y-82687200D01*
X136677856Y-82687200D02*
X136534999Y-82734819D01*
X136534999Y-82734819D02*
X136439761Y-82734819D01*
X136439761Y-82734819D02*
X136296904Y-82687200D01*
X136296904Y-82687200D02*
X136201666Y-82591961D01*
X136201666Y-82591961D02*
X136154047Y-82496723D01*
X136154047Y-82496723D02*
X136106428Y-82306247D01*
X136106428Y-82306247D02*
X136106428Y-82163390D01*
X136106428Y-82163390D02*
X136154047Y-81972914D01*
X136154047Y-81972914D02*
X136201666Y-81877676D01*
X136201666Y-81877676D02*
X136296904Y-81782438D01*
X136296904Y-81782438D02*
X136439761Y-81734819D01*
X136439761Y-81734819D02*
X136534999Y-81734819D01*
X136534999Y-81734819D02*
X136677856Y-81782438D01*
X136677856Y-81782438D02*
X136725475Y-81830057D01*
X137296904Y-82734819D02*
X137201666Y-82687200D01*
X137201666Y-82687200D02*
X137154047Y-82639580D01*
X137154047Y-82639580D02*
X137106428Y-82544342D01*
X137106428Y-82544342D02*
X137106428Y-82258628D01*
X137106428Y-82258628D02*
X137154047Y-82163390D01*
X137154047Y-82163390D02*
X137201666Y-82115771D01*
X137201666Y-82115771D02*
X137296904Y-82068152D01*
X137296904Y-82068152D02*
X137439761Y-82068152D01*
X137439761Y-82068152D02*
X137534999Y-82115771D01*
X137534999Y-82115771D02*
X137582618Y-82163390D01*
X137582618Y-82163390D02*
X137630237Y-82258628D01*
X137630237Y-82258628D02*
X137630237Y-82544342D01*
X137630237Y-82544342D02*
X137582618Y-82639580D01*
X137582618Y-82639580D02*
X137534999Y-82687200D01*
X137534999Y-82687200D02*
X137439761Y-82734819D01*
X137439761Y-82734819D02*
X137296904Y-82734819D01*
X138058809Y-82068152D02*
X138058809Y-82734819D01*
X138058809Y-82163390D02*
X138106428Y-82115771D01*
X138106428Y-82115771D02*
X138201666Y-82068152D01*
X138201666Y-82068152D02*
X138344523Y-82068152D01*
X138344523Y-82068152D02*
X138439761Y-82115771D01*
X138439761Y-82115771D02*
X138487380Y-82211009D01*
X138487380Y-82211009D02*
X138487380Y-82734819D01*
X138963571Y-82068152D02*
X138963571Y-82734819D01*
X138963571Y-82163390D02*
X139011190Y-82115771D01*
X139011190Y-82115771D02*
X139106428Y-82068152D01*
X139106428Y-82068152D02*
X139249285Y-82068152D01*
X139249285Y-82068152D02*
X139344523Y-82115771D01*
X139344523Y-82115771D02*
X139392142Y-82211009D01*
X139392142Y-82211009D02*
X139392142Y-82734819D01*
X139630238Y-82830057D02*
X140392142Y-82830057D01*
X140820714Y-81734819D02*
X140915952Y-81734819D01*
X140915952Y-81734819D02*
X141011190Y-81782438D01*
X141011190Y-81782438D02*
X141058809Y-81830057D01*
X141058809Y-81830057D02*
X141106428Y-81925295D01*
X141106428Y-81925295D02*
X141154047Y-82115771D01*
X141154047Y-82115771D02*
X141154047Y-82353866D01*
X141154047Y-82353866D02*
X141106428Y-82544342D01*
X141106428Y-82544342D02*
X141058809Y-82639580D01*
X141058809Y-82639580D02*
X141011190Y-82687200D01*
X141011190Y-82687200D02*
X140915952Y-82734819D01*
X140915952Y-82734819D02*
X140820714Y-82734819D01*
X140820714Y-82734819D02*
X140725476Y-82687200D01*
X140725476Y-82687200D02*
X140677857Y-82639580D01*
X140677857Y-82639580D02*
X140630238Y-82544342D01*
X140630238Y-82544342D02*
X140582619Y-82353866D01*
X140582619Y-82353866D02*
X140582619Y-82115771D01*
X140582619Y-82115771D02*
X140630238Y-81925295D01*
X140630238Y-81925295D02*
X140677857Y-81830057D01*
X140677857Y-81830057D02*
X140725476Y-81782438D01*
X140725476Y-81782438D02*
X140820714Y-81734819D01*
X142106428Y-82734819D02*
X141535000Y-82734819D01*
X141820714Y-82734819D02*
X141820714Y-81734819D01*
X141820714Y-81734819D02*
X141725476Y-81877676D01*
X141725476Y-81877676D02*
X141630238Y-81972914D01*
X141630238Y-81972914D02*
X141535000Y-82020533D01*
X142439762Y-82734819D02*
X142963571Y-82068152D01*
X142439762Y-82068152D02*
X142963571Y-82734819D01*
X143535000Y-81734819D02*
X143630238Y-81734819D01*
X143630238Y-81734819D02*
X143725476Y-81782438D01*
X143725476Y-81782438D02*
X143773095Y-81830057D01*
X143773095Y-81830057D02*
X143820714Y-81925295D01*
X143820714Y-81925295D02*
X143868333Y-82115771D01*
X143868333Y-82115771D02*
X143868333Y-82353866D01*
X143868333Y-82353866D02*
X143820714Y-82544342D01*
X143820714Y-82544342D02*
X143773095Y-82639580D01*
X143773095Y-82639580D02*
X143725476Y-82687200D01*
X143725476Y-82687200D02*
X143630238Y-82734819D01*
X143630238Y-82734819D02*
X143535000Y-82734819D01*
X143535000Y-82734819D02*
X143439762Y-82687200D01*
X143439762Y-82687200D02*
X143392143Y-82639580D01*
X143392143Y-82639580D02*
X143344524Y-82544342D01*
X143344524Y-82544342D02*
X143296905Y-82353866D01*
X143296905Y-82353866D02*
X143296905Y-82115771D01*
X143296905Y-82115771D02*
X143344524Y-81925295D01*
X143344524Y-81925295D02*
X143392143Y-81830057D01*
X143392143Y-81830057D02*
X143439762Y-81782438D01*
X143439762Y-81782438D02*
X143535000Y-81734819D01*
X144725476Y-81734819D02*
X144535000Y-81734819D01*
X144535000Y-81734819D02*
X144439762Y-81782438D01*
X144439762Y-81782438D02*
X144392143Y-81830057D01*
X144392143Y-81830057D02*
X144296905Y-81972914D01*
X144296905Y-81972914D02*
X144249286Y-82163390D01*
X144249286Y-82163390D02*
X144249286Y-82544342D01*
X144249286Y-82544342D02*
X144296905Y-82639580D01*
X144296905Y-82639580D02*
X144344524Y-82687200D01*
X144344524Y-82687200D02*
X144439762Y-82734819D01*
X144439762Y-82734819D02*
X144630238Y-82734819D01*
X144630238Y-82734819D02*
X144725476Y-82687200D01*
X144725476Y-82687200D02*
X144773095Y-82639580D01*
X144773095Y-82639580D02*
X144820714Y-82544342D01*
X144820714Y-82544342D02*
X144820714Y-82306247D01*
X144820714Y-82306247D02*
X144773095Y-82211009D01*
X144773095Y-82211009D02*
X144725476Y-82163390D01*
X144725476Y-82163390D02*
X144630238Y-82115771D01*
X144630238Y-82115771D02*
X144439762Y-82115771D01*
X144439762Y-82115771D02*
X144344524Y-82163390D01*
X144344524Y-82163390D02*
X144296905Y-82211009D01*
X144296905Y-82211009D02*
X144249286Y-82306247D01*
X145011191Y-82830057D02*
X145773095Y-82830057D01*
X146011191Y-82734819D02*
X146011191Y-81734819D01*
X146011191Y-81734819D02*
X146392143Y-81734819D01*
X146392143Y-81734819D02*
X146487381Y-81782438D01*
X146487381Y-81782438D02*
X146535000Y-81830057D01*
X146535000Y-81830057D02*
X146582619Y-81925295D01*
X146582619Y-81925295D02*
X146582619Y-82068152D01*
X146582619Y-82068152D02*
X146535000Y-82163390D01*
X146535000Y-82163390D02*
X146487381Y-82211009D01*
X146487381Y-82211009D02*
X146392143Y-82258628D01*
X146392143Y-82258628D02*
X146011191Y-82258628D01*
X147011191Y-82734819D02*
X147011191Y-82068152D01*
X147011191Y-81734819D02*
X146963572Y-81782438D01*
X146963572Y-81782438D02*
X147011191Y-81830057D01*
X147011191Y-81830057D02*
X147058810Y-81782438D01*
X147058810Y-81782438D02*
X147011191Y-81734819D01*
X147011191Y-81734819D02*
X147011191Y-81830057D01*
X147487381Y-82068152D02*
X147487381Y-82734819D01*
X147487381Y-82163390D02*
X147535000Y-82115771D01*
X147535000Y-82115771D02*
X147630238Y-82068152D01*
X147630238Y-82068152D02*
X147773095Y-82068152D01*
X147773095Y-82068152D02*
X147868333Y-82115771D01*
X147868333Y-82115771D02*
X147915952Y-82211009D01*
X147915952Y-82211009D02*
X147915952Y-82734819D01*
X141489819Y-91343333D02*
X142204104Y-91343333D01*
X142204104Y-91343333D02*
X142346961Y-91390952D01*
X142346961Y-91390952D02*
X142442200Y-91486190D01*
X142442200Y-91486190D02*
X142489819Y-91629047D01*
X142489819Y-91629047D02*
X142489819Y-91724285D01*
X141489819Y-90390952D02*
X141489819Y-90867142D01*
X141489819Y-90867142D02*
X141966009Y-90914761D01*
X141966009Y-90914761D02*
X141918390Y-90867142D01*
X141918390Y-90867142D02*
X141870771Y-90771904D01*
X141870771Y-90771904D02*
X141870771Y-90533809D01*
X141870771Y-90533809D02*
X141918390Y-90438571D01*
X141918390Y-90438571D02*
X141966009Y-90390952D01*
X141966009Y-90390952D02*
X142061247Y-90343333D01*
X142061247Y-90343333D02*
X142299342Y-90343333D01*
X142299342Y-90343333D02*
X142394580Y-90390952D01*
X142394580Y-90390952D02*
X142442200Y-90438571D01*
X142442200Y-90438571D02*
X142489819Y-90533809D01*
X142489819Y-90533809D02*
X142489819Y-90771904D01*
X142489819Y-90771904D02*
X142442200Y-90867142D01*
X142442200Y-90867142D02*
X142394580Y-90914761D01*
X86209819Y-91033333D02*
X86924104Y-91033333D01*
X86924104Y-91033333D02*
X87066961Y-91080952D01*
X87066961Y-91080952D02*
X87162200Y-91176190D01*
X87162200Y-91176190D02*
X87209819Y-91319047D01*
X87209819Y-91319047D02*
X87209819Y-91414285D01*
X86543152Y-90128571D02*
X87209819Y-90128571D01*
X86162200Y-90366666D02*
X86876485Y-90604761D01*
X86876485Y-90604761D02*
X86876485Y-89985714D01*
X95965809Y-82421009D02*
X95632476Y-82421009D01*
X95632476Y-82944819D02*
X95632476Y-81944819D01*
X95632476Y-81944819D02*
X96108666Y-81944819D01*
X96346762Y-81944819D02*
X96918190Y-81944819D01*
X96632476Y-82944819D02*
X96632476Y-81944819D01*
X97251524Y-82944819D02*
X97251524Y-81944819D01*
X97251524Y-81944819D02*
X97489619Y-81944819D01*
X97489619Y-81944819D02*
X97632476Y-81992438D01*
X97632476Y-81992438D02*
X97727714Y-82087676D01*
X97727714Y-82087676D02*
X97775333Y-82182914D01*
X97775333Y-82182914D02*
X97822952Y-82373390D01*
X97822952Y-82373390D02*
X97822952Y-82516247D01*
X97822952Y-82516247D02*
X97775333Y-82706723D01*
X97775333Y-82706723D02*
X97727714Y-82801961D01*
X97727714Y-82801961D02*
X97632476Y-82897200D01*
X97632476Y-82897200D02*
X97489619Y-82944819D01*
X97489619Y-82944819D02*
X97251524Y-82944819D01*
X98251524Y-82944819D02*
X98251524Y-81944819D01*
X98011819Y-91443333D02*
X98726104Y-91443333D01*
X98726104Y-91443333D02*
X98868961Y-91490952D01*
X98868961Y-91490952D02*
X98964200Y-91586190D01*
X98964200Y-91586190D02*
X99011819Y-91729047D01*
X99011819Y-91729047D02*
X99011819Y-91824285D01*
X99011819Y-90443333D02*
X99011819Y-91014761D01*
X99011819Y-90729047D02*
X98011819Y-90729047D01*
X98011819Y-90729047D02*
X98154676Y-90824285D01*
X98154676Y-90824285D02*
X98249914Y-90919523D01*
X98249914Y-90919523D02*
X98297533Y-91014761D01*
X134254819Y-78915476D02*
X133254819Y-78915476D01*
X133254819Y-78915476D02*
X134254819Y-78344048D01*
X134254819Y-78344048D02*
X133254819Y-78344048D01*
X134254819Y-77296429D02*
X133778628Y-77629762D01*
X134254819Y-77867857D02*
X133254819Y-77867857D01*
X133254819Y-77867857D02*
X133254819Y-77486905D01*
X133254819Y-77486905D02*
X133302438Y-77391667D01*
X133302438Y-77391667D02*
X133350057Y-77344048D01*
X133350057Y-77344048D02*
X133445295Y-77296429D01*
X133445295Y-77296429D02*
X133588152Y-77296429D01*
X133588152Y-77296429D02*
X133683390Y-77344048D01*
X133683390Y-77344048D02*
X133731009Y-77391667D01*
X133731009Y-77391667D02*
X133778628Y-77486905D01*
X133778628Y-77486905D02*
X133778628Y-77867857D01*
X133731009Y-76534524D02*
X133731009Y-76867857D01*
X134254819Y-76867857D02*
X133254819Y-76867857D01*
X133254819Y-76867857D02*
X133254819Y-76391667D01*
X133350057Y-76058333D02*
X133302438Y-76010714D01*
X133302438Y-76010714D02*
X133254819Y-75915476D01*
X133254819Y-75915476D02*
X133254819Y-75677381D01*
X133254819Y-75677381D02*
X133302438Y-75582143D01*
X133302438Y-75582143D02*
X133350057Y-75534524D01*
X133350057Y-75534524D02*
X133445295Y-75486905D01*
X133445295Y-75486905D02*
X133540533Y-75486905D01*
X133540533Y-75486905D02*
X133683390Y-75534524D01*
X133683390Y-75534524D02*
X134254819Y-76105952D01*
X134254819Y-76105952D02*
X134254819Y-75486905D01*
X133588152Y-74629762D02*
X134254819Y-74629762D01*
X133207200Y-74867857D02*
X133921485Y-75105952D01*
X133921485Y-75105952D02*
X133921485Y-74486905D01*
X134254819Y-73629762D02*
X134254819Y-74105952D01*
X134254819Y-74105952D02*
X133254819Y-74105952D01*
X133254819Y-73105952D02*
X133254819Y-73010714D01*
X133254819Y-73010714D02*
X133302438Y-72915476D01*
X133302438Y-72915476D02*
X133350057Y-72867857D01*
X133350057Y-72867857D02*
X133445295Y-72820238D01*
X133445295Y-72820238D02*
X133635771Y-72772619D01*
X133635771Y-72772619D02*
X133873866Y-72772619D01*
X133873866Y-72772619D02*
X134064342Y-72820238D01*
X134064342Y-72820238D02*
X134159580Y-72867857D01*
X134159580Y-72867857D02*
X134207200Y-72915476D01*
X134207200Y-72915476D02*
X134254819Y-73010714D01*
X134254819Y-73010714D02*
X134254819Y-73105952D01*
X134254819Y-73105952D02*
X134207200Y-73201190D01*
X134207200Y-73201190D02*
X134159580Y-73248809D01*
X134159580Y-73248809D02*
X134064342Y-73296428D01*
X134064342Y-73296428D02*
X133873866Y-73344047D01*
X133873866Y-73344047D02*
X133635771Y-73344047D01*
X133635771Y-73344047D02*
X133445295Y-73296428D01*
X133445295Y-73296428D02*
X133350057Y-73248809D01*
X133350057Y-73248809D02*
X133302438Y-73201190D01*
X133302438Y-73201190D02*
X133254819Y-73105952D01*
X134254819Y-71820238D02*
X134254819Y-72391666D01*
X134254819Y-72105952D02*
X133254819Y-72105952D01*
X133254819Y-72105952D02*
X133397676Y-72201190D01*
X133397676Y-72201190D02*
X133492914Y-72296428D01*
X133492914Y-72296428D02*
X133540533Y-72391666D01*
X134350057Y-71629762D02*
X134350057Y-70867857D01*
X133731009Y-70296428D02*
X133778628Y-70153571D01*
X133778628Y-70153571D02*
X133826247Y-70105952D01*
X133826247Y-70105952D02*
X133921485Y-70058333D01*
X133921485Y-70058333D02*
X134064342Y-70058333D01*
X134064342Y-70058333D02*
X134159580Y-70105952D01*
X134159580Y-70105952D02*
X134207200Y-70153571D01*
X134207200Y-70153571D02*
X134254819Y-70248809D01*
X134254819Y-70248809D02*
X134254819Y-70629761D01*
X134254819Y-70629761D02*
X133254819Y-70629761D01*
X133254819Y-70629761D02*
X133254819Y-70296428D01*
X133254819Y-70296428D02*
X133302438Y-70201190D01*
X133302438Y-70201190D02*
X133350057Y-70153571D01*
X133350057Y-70153571D02*
X133445295Y-70105952D01*
X133445295Y-70105952D02*
X133540533Y-70105952D01*
X133540533Y-70105952D02*
X133635771Y-70153571D01*
X133635771Y-70153571D02*
X133683390Y-70201190D01*
X133683390Y-70201190D02*
X133731009Y-70296428D01*
X133731009Y-70296428D02*
X133731009Y-70629761D01*
X134254819Y-69629761D02*
X133588152Y-69629761D01*
X133778628Y-69629761D02*
X133683390Y-69582142D01*
X133683390Y-69582142D02*
X133635771Y-69534523D01*
X133635771Y-69534523D02*
X133588152Y-69439285D01*
X133588152Y-69439285D02*
X133588152Y-69344047D01*
X134207200Y-68629761D02*
X134254819Y-68724999D01*
X134254819Y-68724999D02*
X134254819Y-68915475D01*
X134254819Y-68915475D02*
X134207200Y-69010713D01*
X134207200Y-69010713D02*
X134111961Y-69058332D01*
X134111961Y-69058332D02*
X133731009Y-69058332D01*
X133731009Y-69058332D02*
X133635771Y-69010713D01*
X133635771Y-69010713D02*
X133588152Y-68915475D01*
X133588152Y-68915475D02*
X133588152Y-68724999D01*
X133588152Y-68724999D02*
X133635771Y-68629761D01*
X133635771Y-68629761D02*
X133731009Y-68582142D01*
X133731009Y-68582142D02*
X133826247Y-68582142D01*
X133826247Y-68582142D02*
X133921485Y-69058332D01*
X134254819Y-67724999D02*
X133731009Y-67724999D01*
X133731009Y-67724999D02*
X133635771Y-67772618D01*
X133635771Y-67772618D02*
X133588152Y-67867856D01*
X133588152Y-67867856D02*
X133588152Y-68058332D01*
X133588152Y-68058332D02*
X133635771Y-68153570D01*
X134207200Y-67724999D02*
X134254819Y-67820237D01*
X134254819Y-67820237D02*
X134254819Y-68058332D01*
X134254819Y-68058332D02*
X134207200Y-68153570D01*
X134207200Y-68153570D02*
X134111961Y-68201189D01*
X134111961Y-68201189D02*
X134016723Y-68201189D01*
X134016723Y-68201189D02*
X133921485Y-68153570D01*
X133921485Y-68153570D02*
X133873866Y-68058332D01*
X133873866Y-68058332D02*
X133873866Y-67820237D01*
X133873866Y-67820237D02*
X133826247Y-67724999D01*
X134254819Y-67248808D02*
X133254819Y-67248808D01*
X133873866Y-67153570D02*
X134254819Y-66867856D01*
X133588152Y-66867856D02*
X133969104Y-67248808D01*
X134254819Y-66296427D02*
X134207200Y-66391665D01*
X134207200Y-66391665D02*
X134159580Y-66439284D01*
X134159580Y-66439284D02*
X134064342Y-66486903D01*
X134064342Y-66486903D02*
X133778628Y-66486903D01*
X133778628Y-66486903D02*
X133683390Y-66439284D01*
X133683390Y-66439284D02*
X133635771Y-66391665D01*
X133635771Y-66391665D02*
X133588152Y-66296427D01*
X133588152Y-66296427D02*
X133588152Y-66153570D01*
X133588152Y-66153570D02*
X133635771Y-66058332D01*
X133635771Y-66058332D02*
X133683390Y-66010713D01*
X133683390Y-66010713D02*
X133778628Y-65963094D01*
X133778628Y-65963094D02*
X134064342Y-65963094D01*
X134064342Y-65963094D02*
X134159580Y-66010713D01*
X134159580Y-66010713D02*
X134207200Y-66058332D01*
X134207200Y-66058332D02*
X134254819Y-66153570D01*
X134254819Y-66153570D02*
X134254819Y-66296427D01*
X133588152Y-65105951D02*
X134254819Y-65105951D01*
X133588152Y-65534522D02*
X134111961Y-65534522D01*
X134111961Y-65534522D02*
X134207200Y-65486903D01*
X134207200Y-65486903D02*
X134254819Y-65391665D01*
X134254819Y-65391665D02*
X134254819Y-65248808D01*
X134254819Y-65248808D02*
X134207200Y-65153570D01*
X134207200Y-65153570D02*
X134159580Y-65105951D01*
X133588152Y-64772617D02*
X133588152Y-64391665D01*
X133254819Y-64629760D02*
X134111961Y-64629760D01*
X134111961Y-64629760D02*
X134207200Y-64582141D01*
X134207200Y-64582141D02*
X134254819Y-64486903D01*
X134254819Y-64486903D02*
X134254819Y-64391665D01*
D11*
%TO.C,J8*%
X91880000Y-66747500D02*
X91880000Y-79447500D01*
X91880000Y-79447500D02*
X99780000Y-79447500D01*
X99780000Y-66747500D02*
X91880000Y-66747500D01*
X99780000Y-79447500D02*
X99780000Y-66747500D01*
D12*
X97930000Y-65497500D02*
G75*
G02*
X97730000Y-65497500I-100000J0D01*
G01*
X97730000Y-65497500D02*
G75*
G02*
X97930000Y-65497500I100000J0D01*
G01*
D13*
%TO.C,J2*%
X111430000Y-85141000D02*
X115875000Y-85141000D01*
X111430000Y-87681000D02*
X111430000Y-85141000D01*
X115875000Y-85141000D02*
X116510000Y-85776000D01*
X116510000Y-85776000D02*
X116510000Y-87681000D01*
X116510000Y-87681000D02*
X111430000Y-87681000D01*
%TO.C,J5*%
X139495000Y-86880000D02*
X140765000Y-86880000D01*
X139495000Y-87520000D02*
X139495000Y-86880000D01*
X139495000Y-91960000D02*
X140765000Y-91960000D01*
X139495000Y-92600000D02*
X139495000Y-91960000D01*
X139495000Y-97040000D02*
X140765000Y-97040000D01*
X139495000Y-97680000D02*
X139495000Y-97040000D01*
X140765000Y-83390000D02*
X140765000Y-97680000D01*
X140765000Y-83390000D02*
X143305000Y-83390000D01*
X140765000Y-87520000D02*
X139495000Y-87520000D01*
X140765000Y-92600000D02*
X139495000Y-92600000D01*
X140765000Y-97680000D02*
X139495000Y-97680000D01*
X140765000Y-97680000D02*
X141715000Y-98630000D01*
X143305000Y-84980000D02*
X144575000Y-84980000D01*
X143305000Y-90060000D02*
X144575000Y-90060000D01*
X143305000Y-95140000D02*
X144575000Y-95140000D01*
X143305000Y-98630000D02*
X141715000Y-98630000D01*
X143305000Y-98630000D02*
X143305000Y-83390000D01*
X144575000Y-84340000D02*
X143305000Y-84340000D01*
X144575000Y-84980000D02*
X144575000Y-84340000D01*
X144575000Y-89420000D02*
X143305000Y-89420000D01*
X144575000Y-90060000D02*
X144575000Y-89420000D01*
X144575000Y-94500000D02*
X143305000Y-94500000D01*
X144575000Y-95140000D02*
X144575000Y-94500000D01*
%TO.C,J4*%
X84215000Y-86570000D02*
X85485000Y-86570000D01*
X84215000Y-87210000D02*
X84215000Y-86570000D01*
X84215000Y-91650000D02*
X85485000Y-91650000D01*
X84215000Y-92290000D02*
X84215000Y-91650000D01*
X84215000Y-96730000D02*
X85485000Y-96730000D01*
X84215000Y-97370000D02*
X84215000Y-96730000D01*
X85485000Y-83080000D02*
X85485000Y-97370000D01*
X85485000Y-83080000D02*
X88025000Y-83080000D01*
X85485000Y-87210000D02*
X84215000Y-87210000D01*
X85485000Y-92290000D02*
X84215000Y-92290000D01*
X85485000Y-97370000D02*
X84215000Y-97370000D01*
X85485000Y-97370000D02*
X86435000Y-98320000D01*
X88025000Y-84670000D02*
X89295000Y-84670000D01*
X88025000Y-89750000D02*
X89295000Y-89750000D01*
X88025000Y-94830000D02*
X89295000Y-94830000D01*
X88025000Y-98320000D02*
X86435000Y-98320000D01*
X88025000Y-98320000D02*
X88025000Y-83080000D01*
X89295000Y-84030000D02*
X88025000Y-84030000D01*
X89295000Y-84670000D02*
X89295000Y-84030000D01*
X89295000Y-89110000D02*
X88025000Y-89110000D01*
X89295000Y-89750000D02*
X89295000Y-89110000D01*
X89295000Y-94190000D02*
X88025000Y-94190000D01*
X89295000Y-94830000D02*
X89295000Y-94190000D01*
%TO.C,J1*%
X91287000Y-85080000D02*
X91287000Y-84440000D01*
X91287000Y-87620000D02*
X91287000Y-86980000D01*
X91287000Y-90160000D02*
X91287000Y-89520000D01*
X91287000Y-92700000D02*
X91287000Y-92060000D01*
X91287000Y-95240000D02*
X91287000Y-94600000D01*
X91287000Y-97780000D02*
X91287000Y-97140000D01*
X97287000Y-83490000D02*
X99827000Y-83490000D01*
X97287000Y-84440000D02*
X91287000Y-84440000D01*
X97287000Y-85080000D02*
X91287000Y-85080000D01*
X97287000Y-86980000D02*
X91287000Y-86980000D01*
X97287000Y-87620000D02*
X91287000Y-87620000D01*
X97287000Y-89520000D02*
X91287000Y-89520000D01*
X97287000Y-90160000D02*
X91287000Y-90160000D01*
X97287000Y-92060000D02*
X91287000Y-92060000D01*
X97287000Y-92700000D02*
X91287000Y-92700000D01*
X97287000Y-94600000D02*
X91287000Y-94600000D01*
X97287000Y-95240000D02*
X91287000Y-95240000D01*
X97287000Y-97140000D02*
X91287000Y-97140000D01*
X97287000Y-97780000D02*
X91287000Y-97780000D01*
X97287000Y-98730000D02*
X97287000Y-83490000D01*
X99192000Y-98730000D02*
X97287000Y-98730000D01*
X99827000Y-83490000D02*
X99827000Y-98095000D01*
X99827000Y-98095000D02*
X99192000Y-98730000D01*
X101647000Y-84440000D02*
X99827000Y-84440000D01*
X101647000Y-85080000D02*
X99827000Y-85080000D01*
X101647000Y-85080000D02*
X101647000Y-84440000D01*
X101647000Y-86980000D02*
X99827000Y-86980000D01*
X101647000Y-87620000D02*
X99827000Y-87620000D01*
X101647000Y-87620000D02*
X101647000Y-86980000D01*
X101647000Y-89520000D02*
X99827000Y-89520000D01*
X101647000Y-90160000D02*
X99827000Y-90160000D01*
X101647000Y-90160000D02*
X101647000Y-89520000D01*
X101647000Y-92060000D02*
X99827000Y-92060000D01*
X101647000Y-92700000D02*
X99827000Y-92700000D01*
X101647000Y-92700000D02*
X101647000Y-92060000D01*
X101647000Y-94600000D02*
X99827000Y-94600000D01*
X101647000Y-95240000D02*
X99827000Y-95240000D01*
X101647000Y-95240000D02*
X101647000Y-94600000D01*
X101647000Y-97140000D02*
X99827000Y-97140000D01*
X101647000Y-97780000D02*
X99827000Y-97780000D01*
X101647000Y-97780000D02*
X101647000Y-97140000D01*
%TO.C,U1*%
X122530000Y-69185000D02*
X132690000Y-69185000D01*
X122530000Y-73315000D02*
X122530000Y-69185000D01*
X123480000Y-68125000D02*
X124120000Y-68125000D01*
X123480000Y-69185000D02*
X123480000Y-68125000D01*
X123480000Y-74265000D02*
X122530000Y-73315000D01*
X123480000Y-74265000D02*
X123480000Y-75325000D01*
X123480000Y-75325000D02*
X124120000Y-75325000D01*
X124120000Y-68125000D02*
X124120000Y-69185000D01*
X124120000Y-75325000D02*
X124120000Y-74265000D01*
X126020000Y-68125000D02*
X126660000Y-68125000D01*
X126020000Y-69185000D02*
X126020000Y-68125000D01*
X126020000Y-74265000D02*
X126020000Y-75325000D01*
X126020000Y-75325000D02*
X126660000Y-75325000D01*
X126660000Y-68125000D02*
X126660000Y-69185000D01*
X126660000Y-75325000D02*
X126660000Y-74265000D01*
X128560000Y-68125000D02*
X129200000Y-68125000D01*
X128560000Y-69185000D02*
X128560000Y-68125000D01*
X128560000Y-74265000D02*
X128560000Y-75325000D01*
X128560000Y-75325000D02*
X129200000Y-75325000D01*
X129200000Y-68125000D02*
X129200000Y-69185000D01*
X129200000Y-75325000D02*
X129200000Y-74265000D01*
X131100000Y-68125000D02*
X131740000Y-68125000D01*
X131100000Y-69185000D02*
X131100000Y-68125000D01*
X131100000Y-74265000D02*
X131100000Y-75325000D01*
X131100000Y-75325000D02*
X131740000Y-75325000D01*
X131740000Y-68125000D02*
X131740000Y-69185000D01*
X131740000Y-75325000D02*
X131740000Y-74265000D01*
X132690000Y-69185000D02*
X132690000Y-74265000D01*
X132690000Y-74265000D02*
X123480000Y-74265000D01*
%TD*%
M02*
