%TF.GenerationSoftware,KiCad,Pcbnew,9.0.5-9.0.5~ubuntu24.04.1*%
%TF.CreationDate,2025-11-18T16:55:03+01:00*%
%TF.ProjectId,Nodo 2 MySensor,4e6f646f-2032-4204-9d79-53656e736f72,rev?*%
%TF.SameCoordinates,Original*%
%TF.FileFunction,Copper,L1,Top*%
%TF.FilePolarity,Positive*%
%FSLAX46Y46*%
G04 Gerber Fmt 4.6, Leading zero omitted, Abs format (unit mm)*
G04 Created by KiCad (PCBNEW 9.0.5-9.0.5~ubuntu24.04.1) date 2025-11-18 16:55:03*
%MOMM*%
%LPD*%
G01*
G04 APERTURE LIST*
%ADD10C,0.300000*%
%TA.AperFunction,NonConductor*%
%ADD11C,0.300000*%
%TD*%
%TA.AperFunction,SMDPad,CuDef*%
%ADD12R,2.000000X6.000000*%
%TD*%
%TA.AperFunction,SMDPad,CuDef*%
%ADD13R,2.000000X3.500000*%
%TD*%
%TA.AperFunction,ComponentPad*%
%ADD14R,1.700000X1.700000*%
%TD*%
%TA.AperFunction,ComponentPad*%
%ADD15O,1.700000X1.700000*%
%TD*%
%TA.AperFunction,SMDPad,CuDef*%
%ADD16R,2.510000X1.000000*%
%TD*%
%TA.AperFunction,SMDPad,CuDef*%
%ADD17R,1.000000X3.150000*%
%TD*%
%TA.AperFunction,Conductor*%
%ADD18C,0.400000*%
%TD*%
%TA.AperFunction,Conductor*%
%ADD19C,0.250000*%
%TD*%
G04 APERTURE END LIST*
D10*
D11*
X102123082Y-72492257D02*
X102837368Y-72492257D01*
X101980225Y-72920828D02*
X102480225Y-71420828D01*
X102480225Y-71420828D02*
X102980225Y-72920828D01*
X103480224Y-72777971D02*
X103551653Y-72849400D01*
X103551653Y-72849400D02*
X103480224Y-72920828D01*
X103480224Y-72920828D02*
X103408796Y-72849400D01*
X103408796Y-72849400D02*
X103480224Y-72777971D01*
X103480224Y-72777971D02*
X103480224Y-72920828D01*
X104623082Y-71420828D02*
X104623082Y-72492257D01*
X104623082Y-72492257D02*
X104551653Y-72706542D01*
X104551653Y-72706542D02*
X104408796Y-72849400D01*
X104408796Y-72849400D02*
X104194510Y-72920828D01*
X104194510Y-72920828D02*
X104051653Y-72920828D01*
X105337367Y-72777971D02*
X105408796Y-72849400D01*
X105408796Y-72849400D02*
X105337367Y-72920828D01*
X105337367Y-72920828D02*
X105265939Y-72849400D01*
X105265939Y-72849400D02*
X105337367Y-72777971D01*
X105337367Y-72777971D02*
X105337367Y-72920828D01*
X106837368Y-71492257D02*
X106694511Y-71420828D01*
X106694511Y-71420828D02*
X106480225Y-71420828D01*
X106480225Y-71420828D02*
X106265939Y-71492257D01*
X106265939Y-71492257D02*
X106123082Y-71635114D01*
X106123082Y-71635114D02*
X106051653Y-71777971D01*
X106051653Y-71777971D02*
X105980225Y-72063685D01*
X105980225Y-72063685D02*
X105980225Y-72277971D01*
X105980225Y-72277971D02*
X106051653Y-72563685D01*
X106051653Y-72563685D02*
X106123082Y-72706542D01*
X106123082Y-72706542D02*
X106265939Y-72849400D01*
X106265939Y-72849400D02*
X106480225Y-72920828D01*
X106480225Y-72920828D02*
X106623082Y-72920828D01*
X106623082Y-72920828D02*
X106837368Y-72849400D01*
X106837368Y-72849400D02*
X106908796Y-72777971D01*
X106908796Y-72777971D02*
X106908796Y-72277971D01*
X106908796Y-72277971D02*
X106623082Y-72277971D01*
X107551653Y-72777971D02*
X107623082Y-72849400D01*
X107623082Y-72849400D02*
X107551653Y-72920828D01*
X107551653Y-72920828D02*
X107480225Y-72849400D01*
X107480225Y-72849400D02*
X107551653Y-72777971D01*
X107551653Y-72777971D02*
X107551653Y-72920828D01*
X109123082Y-72920828D02*
X108623082Y-72206542D01*
X108265939Y-72920828D02*
X108265939Y-71420828D01*
X108265939Y-71420828D02*
X108837368Y-71420828D01*
X108837368Y-71420828D02*
X108980225Y-71492257D01*
X108980225Y-71492257D02*
X109051654Y-71563685D01*
X109051654Y-71563685D02*
X109123082Y-71706542D01*
X109123082Y-71706542D02*
X109123082Y-71920828D01*
X109123082Y-71920828D02*
X109051654Y-72063685D01*
X109051654Y-72063685D02*
X108980225Y-72135114D01*
X108980225Y-72135114D02*
X108837368Y-72206542D01*
X108837368Y-72206542D02*
X108265939Y-72206542D01*
X109765939Y-72777971D02*
X109837368Y-72849400D01*
X109837368Y-72849400D02*
X109765939Y-72920828D01*
X109765939Y-72920828D02*
X109694511Y-72849400D01*
X109694511Y-72849400D02*
X109765939Y-72777971D01*
X109765939Y-72777971D02*
X109765939Y-72920828D01*
X112837368Y-72920828D02*
X112765940Y-72920828D01*
X112765940Y-72920828D02*
X112623082Y-72849400D01*
X112623082Y-72849400D02*
X112408797Y-72635114D01*
X112408797Y-72635114D02*
X112051654Y-72206542D01*
X112051654Y-72206542D02*
X111908797Y-71992257D01*
X111908797Y-71992257D02*
X111837368Y-71777971D01*
X111837368Y-71777971D02*
X111837368Y-71635114D01*
X111837368Y-71635114D02*
X111908797Y-71492257D01*
X111908797Y-71492257D02*
X112051654Y-71420828D01*
X112051654Y-71420828D02*
X112123082Y-71420828D01*
X112123082Y-71420828D02*
X112265940Y-71492257D01*
X112265940Y-71492257D02*
X112337368Y-71635114D01*
X112337368Y-71635114D02*
X112337368Y-71706542D01*
X112337368Y-71706542D02*
X112265940Y-71849400D01*
X112265940Y-71849400D02*
X112194511Y-71920828D01*
X112194511Y-71920828D02*
X111765940Y-72206542D01*
X111765940Y-72206542D02*
X111694511Y-72277971D01*
X111694511Y-72277971D02*
X111623082Y-72420828D01*
X111623082Y-72420828D02*
X111623082Y-72635114D01*
X111623082Y-72635114D02*
X111694511Y-72777971D01*
X111694511Y-72777971D02*
X111765940Y-72849400D01*
X111765940Y-72849400D02*
X111908797Y-72920828D01*
X111908797Y-72920828D02*
X112123082Y-72920828D01*
X112123082Y-72920828D02*
X112265940Y-72849400D01*
X112265940Y-72849400D02*
X112337368Y-72777971D01*
X112337368Y-72777971D02*
X112551654Y-72492257D01*
X112551654Y-72492257D02*
X112623082Y-72277971D01*
X112623082Y-72277971D02*
X112623082Y-72135114D01*
X115480225Y-72777971D02*
X115408797Y-72849400D01*
X115408797Y-72849400D02*
X115194511Y-72920828D01*
X115194511Y-72920828D02*
X115051654Y-72920828D01*
X115051654Y-72920828D02*
X114837368Y-72849400D01*
X114837368Y-72849400D02*
X114694511Y-72706542D01*
X114694511Y-72706542D02*
X114623082Y-72563685D01*
X114623082Y-72563685D02*
X114551654Y-72277971D01*
X114551654Y-72277971D02*
X114551654Y-72063685D01*
X114551654Y-72063685D02*
X114623082Y-71777971D01*
X114623082Y-71777971D02*
X114694511Y-71635114D01*
X114694511Y-71635114D02*
X114837368Y-71492257D01*
X114837368Y-71492257D02*
X115051654Y-71420828D01*
X115051654Y-71420828D02*
X115194511Y-71420828D01*
X115194511Y-71420828D02*
X115408797Y-71492257D01*
X115408797Y-71492257D02*
X115480225Y-71563685D01*
X116123082Y-72777971D02*
X116194511Y-72849400D01*
X116194511Y-72849400D02*
X116123082Y-72920828D01*
X116123082Y-72920828D02*
X116051654Y-72849400D01*
X116051654Y-72849400D02*
X116123082Y-72777971D01*
X116123082Y-72777971D02*
X116123082Y-72920828D01*
X117265940Y-71420828D02*
X117265940Y-72492257D01*
X117265940Y-72492257D02*
X117194511Y-72706542D01*
X117194511Y-72706542D02*
X117051654Y-72849400D01*
X117051654Y-72849400D02*
X116837368Y-72920828D01*
X116837368Y-72920828D02*
X116694511Y-72920828D01*
X117980225Y-72777971D02*
X118051654Y-72849400D01*
X118051654Y-72849400D02*
X117980225Y-72920828D01*
X117980225Y-72920828D02*
X117908797Y-72849400D01*
X117908797Y-72849400D02*
X117980225Y-72777971D01*
X117980225Y-72777971D02*
X117980225Y-72920828D01*
X119194511Y-72135114D02*
X119408797Y-72206542D01*
X119408797Y-72206542D02*
X119480226Y-72277971D01*
X119480226Y-72277971D02*
X119551654Y-72420828D01*
X119551654Y-72420828D02*
X119551654Y-72635114D01*
X119551654Y-72635114D02*
X119480226Y-72777971D01*
X119480226Y-72777971D02*
X119408797Y-72849400D01*
X119408797Y-72849400D02*
X119265940Y-72920828D01*
X119265940Y-72920828D02*
X118694511Y-72920828D01*
X118694511Y-72920828D02*
X118694511Y-71420828D01*
X118694511Y-71420828D02*
X119194511Y-71420828D01*
X119194511Y-71420828D02*
X119337369Y-71492257D01*
X119337369Y-71492257D02*
X119408797Y-71563685D01*
X119408797Y-71563685D02*
X119480226Y-71706542D01*
X119480226Y-71706542D02*
X119480226Y-71849400D01*
X119480226Y-71849400D02*
X119408797Y-71992257D01*
X119408797Y-71992257D02*
X119337369Y-72063685D01*
X119337369Y-72063685D02*
X119194511Y-72135114D01*
X119194511Y-72135114D02*
X118694511Y-72135114D01*
X120194511Y-72777971D02*
X120265940Y-72849400D01*
X120265940Y-72849400D02*
X120194511Y-72920828D01*
X120194511Y-72920828D02*
X120123083Y-72849400D01*
X120123083Y-72849400D02*
X120194511Y-72777971D01*
X120194511Y-72777971D02*
X120194511Y-72920828D01*
D12*
%TO.P,J8,1_1,1*%
%TO.N,VCC*%
X97830000Y-69097500D03*
D13*
%TO.P,J8,1_2,1*%
X97830000Y-78347500D03*
D12*
%TO.P,J8,2_1,2*%
%TO.N,GND*%
X93830000Y-69097500D03*
D13*
%TO.P,J8,2_2,2*%
X93830000Y-78347500D03*
%TD*%
D14*
%TO.P,J2,1,Pin_1*%
%TO.N,/SDA{slash}A4*%
X115240000Y-86411000D03*
D15*
%TO.P,J2,2,Pin_2*%
%TO.N,/SCL{slash}A5*%
X112700000Y-86411000D03*
%TD*%
D16*
%TO.P,J5,1,Pin_1*%
%TO.N,VCC*%
X140380000Y-97360000D03*
%TO.P,J5,2,Pin_2*%
%TO.N,GND*%
X143690000Y-94820000D03*
%TO.P,J5,3,Pin_3*%
%TO.N,/SCL{slash}A5*%
X140380000Y-92280000D03*
%TO.P,J5,4,Pin_4*%
%TO.N,/SDA{slash}A4*%
X143690000Y-89740000D03*
%TO.P,J5,5,Pin_5*%
%TO.N,unconnected-(J5-Pin_5-Pad5)*%
X140380000Y-87200000D03*
%TO.P,J5,6,Pin_6*%
%TO.N,unconnected-(J5-Pin_6-Pad6)*%
X143690000Y-84660000D03*
%TD*%
%TO.P,J4,1,Pin_1*%
%TO.N,/DTR*%
X85100000Y-97050000D03*
%TO.P,J4,2,Pin_2*%
%TO.N,/TX*%
X88410000Y-94510000D03*
%TO.P,J4,3,Pin_3*%
%TO.N,/RX*%
X85100000Y-91970000D03*
%TO.P,J4,4,Pin_4*%
%TO.N,VCC*%
X88410000Y-89430000D03*
%TO.P,J4,5,Pin_5*%
%TO.N,GND*%
X85100000Y-86890000D03*
%TO.P,J4,6,Pin_6*%
X88410000Y-84350000D03*
%TD*%
D14*
%TO.P,J1,1,Pin_1*%
%TO.N,/DTR*%
X101327000Y-97460000D03*
D15*
%TO.P,J1,2,Pin_2*%
%TO.N,/TX*%
X101327000Y-94920000D03*
%TO.P,J1,3,Pin_3*%
%TO.N,/RX*%
X101327000Y-92380000D03*
%TO.P,J1,4,Pin_4*%
%TO.N,VCC*%
X101327000Y-89840000D03*
%TO.P,J1,5,Pin_5*%
%TO.N,GND*%
X101327000Y-87300000D03*
%TO.P,J1,6,Pin_6*%
X101327000Y-84760000D03*
%TD*%
D17*
%TO.P,U1,1,GND*%
%TO.N,GND*%
X123800000Y-74250000D03*
%TO.P,U1,2,VCC*%
%TO.N,VCC*%
X123800000Y-69200000D03*
%TO.P,U1,3,CE*%
%TO.N,/\u002AD9*%
X126340000Y-74250000D03*
%TO.P,U1,4,~{CSN}*%
%TO.N,/SS{slash}\u002AD10*%
X126340000Y-69200000D03*
%TO.P,U1,5,SCK*%
%TO.N,/SCK{slash}D13*%
X128880000Y-74250000D03*
%TO.P,U1,6,MOSI*%
%TO.N,/MOSI{slash}\u002AD11*%
X128880000Y-69200000D03*
%TO.P,U1,7,MISO*%
%TO.N,/MISO{slash}D12*%
X131420000Y-74250000D03*
%TO.P,U1,8,IRQ*%
%TO.N,unconnected-(U1-IRQ-Pad8)*%
X131420000Y-69200000D03*
%TD*%
D14*
%TO.P,J7,1,Pin_1*%
%TO.N,/\u002AD9*%
X131750000Y-98730000D03*
D15*
%TO.P,J7,2,Pin_2*%
%TO.N,/D8*%
X129210000Y-98730000D03*
%TO.P,J7,3,Pin_3*%
%TO.N,/D7*%
X126670000Y-98730000D03*
%TO.P,J7,4,Pin_4*%
%TO.N,/\u002AD6*%
X124130000Y-98730000D03*
%TO.P,J7,5,Pin_5*%
%TO.N,/\u002AD5*%
X121590000Y-98730000D03*
%TO.P,J7,6,Pin_6*%
%TO.N,/D4*%
X119050000Y-98730000D03*
%TO.P,J7,7,Pin_7*%
%TO.N,/\u002AD3*%
X116510000Y-98730000D03*
%TO.P,J7,8,Pin_8*%
%TO.N,/D2*%
X113970000Y-98730000D03*
%TO.P,J7,9,Pin_9*%
%TO.N,GND*%
X111430000Y-98730000D03*
%TO.P,J7,10,Pin_10*%
%TO.N,/~{RESET}*%
X108890000Y-98730000D03*
%TO.P,J7,11,Pin_11*%
%TO.N,/RX*%
X106350000Y-98730000D03*
%TO.P,J7,12,Pin_12*%
%TO.N,/TX*%
X103810000Y-98730000D03*
%TD*%
D14*
%TO.P,J6,1,Pin_1*%
%TO.N,VDC*%
X103810000Y-83490000D03*
D15*
%TO.P,J6,2,Pin_2*%
%TO.N,GND*%
X106350000Y-83490000D03*
%TO.P,J6,3,Pin_3*%
%TO.N,/~{RESET}*%
X108890000Y-83490000D03*
%TO.P,J6,4,Pin_4*%
%TO.N,VCC*%
X111430000Y-83490000D03*
%TO.P,J6,5,Pin_5*%
%TO.N,/A3*%
X113970000Y-83490000D03*
%TO.P,J6,6,Pin_6*%
%TO.N,/A2*%
X116510000Y-83490000D03*
%TO.P,J6,7,Pin_7*%
%TO.N,/A1*%
X119050000Y-83490000D03*
%TO.P,J6,8,Pin_8*%
%TO.N,/A0*%
X121590000Y-83490000D03*
%TO.P,J6,9,Pin_9*%
%TO.N,/SCK{slash}D13*%
X124130000Y-83490000D03*
%TO.P,J6,10,Pin_10*%
%TO.N,/MISO{slash}D12*%
X126670000Y-83490000D03*
%TO.P,J6,11,Pin_11*%
%TO.N,/MOSI{slash}\u002AD11*%
X129210000Y-83490000D03*
%TO.P,J6,12,Pin_12*%
%TO.N,/SS{slash}\u002AD10*%
X131750000Y-83490000D03*
%TD*%
D18*
%TO.N,GND*%
X90060000Y-81800000D02*
X92180000Y-81800000D01*
X141950000Y-99480000D02*
X143690000Y-97740000D01*
X112240000Y-74250000D02*
X106330000Y-80160000D01*
X112560000Y-96370000D02*
X135540000Y-96370000D01*
X93830000Y-80350000D02*
X93830000Y-78347500D01*
X101327000Y-87300000D02*
X101327000Y-84760000D01*
X88410000Y-84350000D02*
X88410000Y-83450000D01*
X88820000Y-84760000D02*
X88410000Y-84350000D01*
X92180000Y-81800000D02*
X92280000Y-81900000D01*
X101327000Y-84760000D02*
X88820000Y-84760000D01*
X106330000Y-80160000D02*
X106330000Y-83470000D01*
X101027000Y-87000000D02*
X101327000Y-87300000D01*
X138650000Y-99480000D02*
X141950000Y-99480000D01*
X92280000Y-81900000D02*
X93830000Y-80350000D01*
X106330000Y-83470000D02*
X106350000Y-83490000D01*
X143690000Y-97740000D02*
X143690000Y-94820000D01*
X135540000Y-96370000D02*
X138650000Y-99480000D01*
X123800000Y-74250000D02*
X112240000Y-74250000D01*
X111430000Y-97500000D02*
X112560000Y-96370000D01*
X85510000Y-87300000D02*
X85100000Y-86890000D01*
X88410000Y-83450000D02*
X90060000Y-81800000D01*
X111430000Y-98730000D02*
X111430000Y-97500000D01*
X101327000Y-87300000D02*
X85510000Y-87300000D01*
%TO.N,VCC*%
X104635000Y-90185000D02*
X104290000Y-89840000D01*
X92090000Y-74470000D02*
X96430000Y-74470000D01*
X102510000Y-69200000D02*
X101780000Y-69200000D01*
X81860000Y-87780000D02*
X81860000Y-84700000D01*
X81860000Y-84700000D02*
X92090000Y-74470000D01*
X102407500Y-69097500D02*
X102510000Y-69200000D01*
X104735000Y-90185000D02*
X104635000Y-90185000D01*
X97830000Y-72970000D02*
X97830000Y-69097500D01*
X111430000Y-83490000D02*
X104735000Y-90185000D01*
X104635000Y-90185000D02*
X109550000Y-95100000D01*
X101327000Y-89840000D02*
X88820000Y-89840000D01*
X123800000Y-69200000D02*
X102510000Y-69200000D01*
X88410000Y-89430000D02*
X83510000Y-89430000D01*
X96430000Y-74370000D02*
X97830000Y-72970000D01*
X97830000Y-69097500D02*
X102407500Y-69097500D01*
X104290000Y-89840000D02*
X101327000Y-89840000D01*
X88820000Y-89840000D02*
X88410000Y-89430000D01*
X138120000Y-95100000D02*
X140380000Y-97360000D01*
X109550000Y-95100000D02*
X138120000Y-95100000D01*
X83510000Y-89430000D02*
X81860000Y-87780000D01*
X96430000Y-74470000D02*
X96430000Y-74370000D01*
%TO.N,/\u002AD9*%
X132890000Y-102060000D02*
X132890000Y-101960000D01*
X133680000Y-64090000D02*
X146400000Y-76810000D01*
X126340000Y-74250000D02*
X125080000Y-72990000D01*
X146400000Y-76810000D02*
X146400000Y-98480000D01*
X125080000Y-66550000D02*
X127540000Y-64090000D01*
X132890000Y-101960000D02*
X131750000Y-100820000D01*
X142820000Y-102060000D02*
X132890000Y-102060000D01*
X125080000Y-72990000D02*
X125080000Y-66550000D01*
X127540000Y-64090000D02*
X133680000Y-64090000D01*
X131750000Y-100820000D02*
X131750000Y-98730000D01*
X146400000Y-98480000D02*
X142820000Y-102060000D01*
%TO.N,/DTR*%
X85510000Y-97460000D02*
X85100000Y-97050000D01*
X101327000Y-97460000D02*
X85510000Y-97460000D01*
%TO.N,/TX*%
X103830000Y-96130000D02*
X103880000Y-96130000D01*
X100917000Y-94510000D02*
X101327000Y-94920000D01*
X88410000Y-94510000D02*
X100917000Y-94510000D01*
X102620000Y-94920000D02*
X103830000Y-96130000D01*
X101327000Y-94920000D02*
X102620000Y-94920000D01*
X103880000Y-96130000D02*
X103810000Y-96200000D01*
X103810000Y-96200000D02*
X103810000Y-98730000D01*
%TO.N,/RX*%
X103660000Y-92380000D02*
X101327000Y-92380000D01*
D19*
X103830000Y-92440000D02*
X103720000Y-92440000D01*
D18*
X85510000Y-92380000D02*
X85100000Y-91970000D01*
X106350000Y-94960000D02*
X103830000Y-92440000D01*
X101327000Y-92380000D02*
X85510000Y-92380000D01*
X106350000Y-98730000D02*
X106350000Y-94960000D01*
D19*
X103720000Y-92440000D02*
X103660000Y-92380000D01*
D18*
%TO.N,/SCL{slash}A5*%
X116760000Y-93930000D02*
X112700000Y-89870000D01*
X112700000Y-89870000D02*
X112700000Y-86411000D01*
X138740000Y-93920000D02*
X140380000Y-92280000D01*
X128990000Y-93930000D02*
X116760000Y-93930000D01*
X128990000Y-93920000D02*
X138740000Y-93920000D01*
X128990000Y-93930000D02*
X128990000Y-93920000D01*
%TO.N,/SDA{slash}A4*%
X136370000Y-89740000D02*
X143690000Y-89740000D01*
X130900000Y-93130000D02*
X132980000Y-93130000D01*
X132980000Y-93130000D02*
X136370000Y-89740000D01*
X115240000Y-86411000D02*
X124181000Y-86411000D01*
X124181000Y-86411000D02*
X130900000Y-93130000D01*
%TO.N,/SS{slash}\u002AD10*%
X126340000Y-68125000D02*
X128365000Y-66100000D01*
X135000000Y-83490000D02*
X131750000Y-83490000D01*
X133020000Y-66100000D02*
X136700000Y-69780000D01*
X128365000Y-66100000D02*
X133020000Y-66100000D01*
X136660000Y-69820000D02*
X136660000Y-81830000D01*
X136660000Y-81830000D02*
X135000000Y-83490000D01*
X136700000Y-69780000D02*
X136660000Y-69820000D01*
X126340000Y-69200000D02*
X126340000Y-68125000D01*
%TO.N,/MOSI{slash}\u002AD11*%
X133340000Y-72620000D02*
X132510000Y-71790000D01*
X133340000Y-77580000D02*
X133340000Y-72620000D01*
X129210000Y-81710000D02*
X133340000Y-77580000D01*
X129210000Y-83490000D02*
X129210000Y-81710000D01*
X130395000Y-71790000D02*
X128880000Y-70275000D01*
X128880000Y-70275000D02*
X128880000Y-69200000D01*
X132510000Y-71790000D02*
X130395000Y-71790000D01*
%TO.N,/MISO{slash}D12*%
X126670000Y-81140000D02*
X131420000Y-76390000D01*
X131420000Y-76390000D02*
X131420000Y-74250000D01*
X126670000Y-83490000D02*
X126670000Y-81140000D01*
%TO.N,/SCK{slash}D13*%
X124130000Y-83490000D02*
X124130000Y-80270000D01*
X124130000Y-80270000D02*
X128880000Y-75520000D01*
X128880000Y-75520000D02*
X128880000Y-74250000D01*
%TD*%
M02*
