M48
; DRILL file {KiCad 9.0.5-9.0.5~ubuntu24.04.1} date 2025-11-18T16:25:50+0100
; FORMAT={-:-/ absolute / metric / decimal}
; #@! TF.CreationDate,2025-11-18T16:25:50+01:00
; #@! TF.GenerationSoftware,Kicad,Pcbnew,9.0.5-9.0.5~ubuntu24.04.1
; #@! TF.FileFunction,Plated,1,2,PTH
FMAT,2
METRIC
; #@! TA.AperFunction,Plated,PTH,ComponentDrill
T1C1.000
%
G90
G05
T1
X101.327Y-84.76
X101.327Y-87.3
X101.327Y-89.84
X101.327Y-92.38
X101.327Y-94.92
X101.327Y-97.46
X103.81Y-83.49
X103.81Y-98.73
X106.35Y-83.49
X106.35Y-98.73
X108.89Y-83.49
X108.89Y-98.73
X111.43Y-83.49
X111.43Y-98.73
X112.7Y-86.411
X113.97Y-83.49
X113.97Y-98.73
X115.24Y-86.411
X116.51Y-83.49
X116.51Y-98.73
X119.05Y-83.49
X119.05Y-98.73
X121.59Y-83.49
X121.59Y-98.73
X124.13Y-83.49
X124.13Y-98.73
X126.67Y-83.49
X126.67Y-98.73
X129.21Y-83.49
X129.21Y-98.73
X131.75Y-83.49
X131.75Y-98.73
M30
