%TF.GenerationSoftware,KiCad,Pcbnew,9.0.5-9.0.5~ubuntu24.04.1*%
%TF.CreationDate,2025-11-18T16:55:03+01:00*%
%TF.ProjectId,Nodo 2 MySensor,4e6f646f-2032-4204-9d79-53656e736f72,rev?*%
%TF.SameCoordinates,Original*%
%TF.FileFunction,Soldermask,Top*%
%TF.FilePolarity,Negative*%
%FSLAX46Y46*%
G04 Gerber Fmt 4.6, Leading zero omitted, Abs format (unit mm)*
G04 Created by KiCad (PCBNEW 9.0.5-9.0.5~ubuntu24.04.1) date 2025-11-18 16:55:03*
%MOMM*%
%LPD*%
G01*
G04 APERTURE LIST*
%ADD10R,1.700000X1.700000*%
%ADD11O,1.700000X1.700000*%
%ADD12R,2.510000X1.000000*%
%ADD13R,1.000000X3.150000*%
G04 APERTURE END LIST*
%TO.C,J8*%
G36*
G01*
X96830000Y-65995500D02*
X98830000Y-65995500D01*
G75*
G02*
X98932000Y-66097500I0J-102000D01*
G01*
X98932000Y-72097500D01*
G75*
G02*
X98830000Y-72199500I-102000J0D01*
G01*
X96830000Y-72199500D01*
G75*
G02*
X96728000Y-72097500I0J102000D01*
G01*
X96728000Y-66097500D01*
G75*
G02*
X96830000Y-65995500I102000J0D01*
G01*
G37*
G36*
G01*
X96830000Y-76495500D02*
X98830000Y-76495500D01*
G75*
G02*
X98932000Y-76597500I0J-102000D01*
G01*
X98932000Y-80097500D01*
G75*
G02*
X98830000Y-80199500I-102000J0D01*
G01*
X96830000Y-80199500D01*
G75*
G02*
X96728000Y-80097500I0J102000D01*
G01*
X96728000Y-76597500D01*
G75*
G02*
X96830000Y-76495500I102000J0D01*
G01*
G37*
G36*
G01*
X92830000Y-65995500D02*
X94830000Y-65995500D01*
G75*
G02*
X94932000Y-66097500I0J-102000D01*
G01*
X94932000Y-72097500D01*
G75*
G02*
X94830000Y-72199500I-102000J0D01*
G01*
X92830000Y-72199500D01*
G75*
G02*
X92728000Y-72097500I0J102000D01*
G01*
X92728000Y-66097500D01*
G75*
G02*
X92830000Y-65995500I102000J0D01*
G01*
G37*
G36*
G01*
X92830000Y-76495500D02*
X94830000Y-76495500D01*
G75*
G02*
X94932000Y-76597500I0J-102000D01*
G01*
X94932000Y-80097500D01*
G75*
G02*
X94830000Y-80199500I-102000J0D01*
G01*
X92830000Y-80199500D01*
G75*
G02*
X92728000Y-80097500I0J102000D01*
G01*
X92728000Y-76597500D01*
G75*
G02*
X92830000Y-76495500I102000J0D01*
G01*
G37*
%TD*%
D10*
%TO.C,J2*%
X115240000Y-86411000D03*
D11*
X112700000Y-86411000D03*
%TD*%
D12*
%TO.C,J5*%
X140380000Y-97360000D03*
X143690000Y-94820000D03*
X140380000Y-92280000D03*
X143690000Y-89740000D03*
X140380000Y-87200000D03*
X143690000Y-84660000D03*
%TD*%
%TO.C,J4*%
X85100000Y-97050000D03*
X88410000Y-94510000D03*
X85100000Y-91970000D03*
X88410000Y-89430000D03*
X85100000Y-86890000D03*
X88410000Y-84350000D03*
%TD*%
D10*
%TO.C,J1*%
X101327000Y-97460000D03*
D11*
X101327000Y-94920000D03*
X101327000Y-92380000D03*
X101327000Y-89840000D03*
X101327000Y-87300000D03*
X101327000Y-84760000D03*
%TD*%
D13*
%TO.C,U1*%
X123800000Y-74250000D03*
X123800000Y-69200000D03*
X126340000Y-74250000D03*
X126340000Y-69200000D03*
X128880000Y-74250000D03*
X128880000Y-69200000D03*
X131420000Y-74250000D03*
X131420000Y-69200000D03*
%TD*%
D10*
%TO.C,J7*%
X131750000Y-98730000D03*
D11*
X129210000Y-98730000D03*
X126670000Y-98730000D03*
X124130000Y-98730000D03*
X121590000Y-98730000D03*
X119050000Y-98730000D03*
X116510000Y-98730000D03*
X113970000Y-98730000D03*
X111430000Y-98730000D03*
X108890000Y-98730000D03*
X106350000Y-98730000D03*
X103810000Y-98730000D03*
%TD*%
D10*
%TO.C,J6*%
X103810000Y-83490000D03*
D11*
X106350000Y-83490000D03*
X108890000Y-83490000D03*
X111430000Y-83490000D03*
X113970000Y-83490000D03*
X116510000Y-83490000D03*
X119050000Y-83490000D03*
X121590000Y-83490000D03*
X124130000Y-83490000D03*
X126670000Y-83490000D03*
X129210000Y-83490000D03*
X131750000Y-83490000D03*
%TD*%
M02*
