%TF.GenerationSoftware,KiCad,Pcbnew,9.0.5-9.0.5~ubuntu24.04.1*%
%TF.CreationDate,2025-11-18T16:55:03+01:00*%
%TF.ProjectId,Nodo 2 MySensor,4e6f646f-2032-4204-9d79-53656e736f72,rev?*%
%TF.SameCoordinates,Original*%
%TF.FileFunction,Legend,Top*%
%TF.FilePolarity,Positive*%
%FSLAX46Y46*%
G04 Gerber Fmt 4.6, Leading zero omitted, Abs format (unit mm)*
G04 Created by KiCad (PCBNEW 9.0.5-9.0.5~ubuntu24.04.1) date 2025-11-18 16:55:03*
%MOMM*%
%LPD*%
G01*
G04 APERTURE LIST*
%ADD10C,0.100000*%
%ADD11C,0.150000*%
%ADD12C,0.127000*%
%ADD13C,0.200000*%
%ADD14C,0.120000*%
G04 APERTURE END LIST*
D10*
X100000000Y-82220000D02*
X133020000Y-82220000D01*
X133020000Y-100000000D01*
X100000000Y-100000000D01*
X100000000Y-82220000D01*
D11*
X101119819Y-69355833D02*
X101834104Y-69355833D01*
X101834104Y-69355833D02*
X101976961Y-69403452D01*
X101976961Y-69403452D02*
X102072200Y-69498690D01*
X102072200Y-69498690D02*
X102119819Y-69641547D01*
X102119819Y-69641547D02*
X102119819Y-69736785D01*
X101548390Y-68736785D02*
X101500771Y-68832023D01*
X101500771Y-68832023D02*
X101453152Y-68879642D01*
X101453152Y-68879642D02*
X101357914Y-68927261D01*
X101357914Y-68927261D02*
X101310295Y-68927261D01*
X101310295Y-68927261D02*
X101215057Y-68879642D01*
X101215057Y-68879642D02*
X101167438Y-68832023D01*
X101167438Y-68832023D02*
X101119819Y-68736785D01*
X101119819Y-68736785D02*
X101119819Y-68546309D01*
X101119819Y-68546309D02*
X101167438Y-68451071D01*
X101167438Y-68451071D02*
X101215057Y-68403452D01*
X101215057Y-68403452D02*
X101310295Y-68355833D01*
X101310295Y-68355833D02*
X101357914Y-68355833D01*
X101357914Y-68355833D02*
X101453152Y-68403452D01*
X101453152Y-68403452D02*
X101500771Y-68451071D01*
X101500771Y-68451071D02*
X101548390Y-68546309D01*
X101548390Y-68546309D02*
X101548390Y-68736785D01*
X101548390Y-68736785D02*
X101596009Y-68832023D01*
X101596009Y-68832023D02*
X101643628Y-68879642D01*
X101643628Y-68879642D02*
X101738866Y-68927261D01*
X101738866Y-68927261D02*
X101929342Y-68927261D01*
X101929342Y-68927261D02*
X102024580Y-68879642D01*
X102024580Y-68879642D02*
X102072200Y-68832023D01*
X102072200Y-68832023D02*
X102119819Y-68736785D01*
X102119819Y-68736785D02*
X102119819Y-68546309D01*
X102119819Y-68546309D02*
X102072200Y-68451071D01*
X102072200Y-68451071D02*
X102024580Y-68403452D01*
X102024580Y-68403452D02*
X101929342Y-68355833D01*
X101929342Y-68355833D02*
X101738866Y-68355833D01*
X101738866Y-68355833D02*
X101643628Y-68403452D01*
X101643628Y-68403452D02*
X101596009Y-68451071D01*
X101596009Y-68451071D02*
X101548390Y-68546309D01*
X117024819Y-86744333D02*
X117739104Y-86744333D01*
X117739104Y-86744333D02*
X117881961Y-86791952D01*
X117881961Y-86791952D02*
X117977200Y-86887190D01*
X117977200Y-86887190D02*
X118024819Y-87030047D01*
X118024819Y-87030047D02*
X118024819Y-87125285D01*
X117120057Y-86315761D02*
X117072438Y-86268142D01*
X117072438Y-86268142D02*
X117024819Y-86172904D01*
X117024819Y-86172904D02*
X117024819Y-85934809D01*
X117024819Y-85934809D02*
X117072438Y-85839571D01*
X117072438Y-85839571D02*
X117120057Y-85791952D01*
X117120057Y-85791952D02*
X117215295Y-85744333D01*
X117215295Y-85744333D02*
X117310533Y-85744333D01*
X117310533Y-85744333D02*
X117453390Y-85791952D01*
X117453390Y-85791952D02*
X118024819Y-86363380D01*
X118024819Y-86363380D02*
X118024819Y-85744333D01*
X141701666Y-99194819D02*
X141701666Y-99909104D01*
X141701666Y-99909104D02*
X141654047Y-100051961D01*
X141654047Y-100051961D02*
X141558809Y-100147200D01*
X141558809Y-100147200D02*
X141415952Y-100194819D01*
X141415952Y-100194819D02*
X141320714Y-100194819D01*
X142654047Y-99194819D02*
X142177857Y-99194819D01*
X142177857Y-99194819D02*
X142130238Y-99671009D01*
X142130238Y-99671009D02*
X142177857Y-99623390D01*
X142177857Y-99623390D02*
X142273095Y-99575771D01*
X142273095Y-99575771D02*
X142511190Y-99575771D01*
X142511190Y-99575771D02*
X142606428Y-99623390D01*
X142606428Y-99623390D02*
X142654047Y-99671009D01*
X142654047Y-99671009D02*
X142701666Y-99766247D01*
X142701666Y-99766247D02*
X142701666Y-100004342D01*
X142701666Y-100004342D02*
X142654047Y-100099580D01*
X142654047Y-100099580D02*
X142606428Y-100147200D01*
X142606428Y-100147200D02*
X142511190Y-100194819D01*
X142511190Y-100194819D02*
X142273095Y-100194819D01*
X142273095Y-100194819D02*
X142177857Y-100147200D01*
X142177857Y-100147200D02*
X142130238Y-100099580D01*
X86421666Y-98884819D02*
X86421666Y-99599104D01*
X86421666Y-99599104D02*
X86374047Y-99741961D01*
X86374047Y-99741961D02*
X86278809Y-99837200D01*
X86278809Y-99837200D02*
X86135952Y-99884819D01*
X86135952Y-99884819D02*
X86040714Y-99884819D01*
X87326428Y-99218152D02*
X87326428Y-99884819D01*
X87088333Y-98837200D02*
X86850238Y-99551485D01*
X86850238Y-99551485D02*
X87469285Y-99551485D01*
X120874819Y-72486904D02*
X121684342Y-72486904D01*
X121684342Y-72486904D02*
X121779580Y-72439285D01*
X121779580Y-72439285D02*
X121827200Y-72391666D01*
X121827200Y-72391666D02*
X121874819Y-72296428D01*
X121874819Y-72296428D02*
X121874819Y-72105952D01*
X121874819Y-72105952D02*
X121827200Y-72010714D01*
X121827200Y-72010714D02*
X121779580Y-71963095D01*
X121779580Y-71963095D02*
X121684342Y-71915476D01*
X121684342Y-71915476D02*
X120874819Y-71915476D01*
X121874819Y-70915476D02*
X121874819Y-71486904D01*
X121874819Y-71201190D02*
X120874819Y-71201190D01*
X120874819Y-71201190D02*
X121017676Y-71296428D01*
X121017676Y-71296428D02*
X121112914Y-71391666D01*
X121112914Y-71391666D02*
X121160533Y-71486904D01*
D12*
%TO.C,J8*%
X91880000Y-66747500D02*
X91880000Y-79447500D01*
X91880000Y-66747500D02*
X92510000Y-66747500D01*
X91880000Y-79447500D02*
X92510000Y-79447500D01*
X99150000Y-79447500D02*
X99780000Y-79447500D01*
X99780000Y-66747500D02*
X99150000Y-66747500D01*
X99780000Y-79447500D02*
X99780000Y-66747500D01*
D13*
X97930000Y-65497500D02*
G75*
G02*
X97730000Y-65497500I-100000J0D01*
G01*
X97730000Y-65497500D02*
G75*
G02*
X97930000Y-65497500I100000J0D01*
G01*
D14*
%TO.C,J2*%
X111370000Y-85081000D02*
X111370000Y-87741000D01*
X113970000Y-85081000D02*
X111370000Y-85081000D01*
X113970000Y-85081000D02*
X113970000Y-87741000D01*
X113970000Y-87741000D02*
X111370000Y-87741000D01*
X115240000Y-85081000D02*
X116570000Y-85081000D01*
X116570000Y-85081000D02*
X116570000Y-86411000D01*
%TO.C,J5*%
X140655000Y-86390000D02*
X140655000Y-83280000D01*
X140655000Y-91470000D02*
X140655000Y-88010000D01*
X140655000Y-96550000D02*
X140655000Y-93090000D01*
X140655000Y-98170000D02*
X139185000Y-98170000D01*
X140655000Y-98740000D02*
X140655000Y-98170000D01*
X143415000Y-83280000D02*
X140655000Y-83280000D01*
X143415000Y-83850000D02*
X143415000Y-83280000D01*
X143415000Y-88930000D02*
X143415000Y-85470000D01*
X143415000Y-94010000D02*
X143415000Y-90550000D01*
X143415000Y-98170000D02*
X143415000Y-95630000D01*
X143415000Y-98740000D02*
X140655000Y-98740000D01*
X143415000Y-98740000D02*
X143415000Y-95630000D01*
%TO.C,J4*%
X85375000Y-86080000D02*
X85375000Y-82970000D01*
X85375000Y-91160000D02*
X85375000Y-87700000D01*
X85375000Y-96240000D02*
X85375000Y-92780000D01*
X85375000Y-97860000D02*
X83905000Y-97860000D01*
X85375000Y-98430000D02*
X85375000Y-97860000D01*
X88135000Y-82970000D02*
X85375000Y-82970000D01*
X88135000Y-83540000D02*
X88135000Y-82970000D01*
X88135000Y-88620000D02*
X88135000Y-85160000D01*
X88135000Y-93700000D02*
X88135000Y-90240000D01*
X88135000Y-97860000D02*
X88135000Y-95320000D01*
X88135000Y-98430000D02*
X85375000Y-98430000D01*
X88135000Y-98430000D02*
X88135000Y-95320000D01*
%TO.C,J1*%
X91227000Y-84380000D02*
X97227000Y-84380000D01*
X91227000Y-85140000D02*
X91227000Y-84380000D01*
X91227000Y-86920000D02*
X97227000Y-86920000D01*
X91227000Y-87680000D02*
X91227000Y-86920000D01*
X91227000Y-89460000D02*
X97227000Y-89460000D01*
X91227000Y-90220000D02*
X91227000Y-89460000D01*
X91227000Y-92000000D02*
X97227000Y-92000000D01*
X91227000Y-92760000D02*
X91227000Y-92000000D01*
X91227000Y-94540000D02*
X97227000Y-94540000D01*
X91227000Y-95300000D02*
X91227000Y-94540000D01*
X91227000Y-97080000D02*
X97227000Y-97080000D01*
X91227000Y-97840000D02*
X91227000Y-97080000D01*
X97227000Y-83430000D02*
X97227000Y-98790000D01*
X97227000Y-85140000D02*
X91227000Y-85140000D01*
X97227000Y-87680000D02*
X91227000Y-87680000D01*
X97227000Y-90220000D02*
X91227000Y-90220000D01*
X97227000Y-92760000D02*
X91227000Y-92760000D01*
X97227000Y-95300000D02*
X91227000Y-95300000D01*
X97227000Y-97180000D02*
X91227000Y-97180000D01*
X97227000Y-97300000D02*
X91227000Y-97300000D01*
X97227000Y-97420000D02*
X91227000Y-97420000D01*
X97227000Y-97540000D02*
X91227000Y-97540000D01*
X97227000Y-97660000D02*
X91227000Y-97660000D01*
X97227000Y-97780000D02*
X91227000Y-97780000D01*
X97227000Y-97840000D02*
X91227000Y-97840000D01*
X97227000Y-98790000D02*
X99887000Y-98790000D01*
X99887000Y-83430000D02*
X97227000Y-83430000D01*
X99887000Y-86030000D02*
X97227000Y-86030000D01*
X99887000Y-88570000D02*
X97227000Y-88570000D01*
X99887000Y-91110000D02*
X97227000Y-91110000D01*
X99887000Y-93650000D02*
X97227000Y-93650000D01*
X99887000Y-96190000D02*
X97227000Y-96190000D01*
X99887000Y-98790000D02*
X99887000Y-83430000D01*
X100217000Y-97080000D02*
X99887000Y-97080000D01*
X100217000Y-97840000D02*
X99887000Y-97840000D01*
X100284071Y-84380000D02*
X99887000Y-84380000D01*
X100284071Y-85140000D02*
X99887000Y-85140000D01*
X100284071Y-86920000D02*
X99887000Y-86920000D01*
X100284071Y-87680000D02*
X99887000Y-87680000D01*
X100284071Y-89460000D02*
X99887000Y-89460000D01*
X100284071Y-90220000D02*
X99887000Y-90220000D01*
X100284071Y-92000000D02*
X99887000Y-92000000D01*
X100284071Y-92760000D02*
X99887000Y-92760000D01*
X100284071Y-94540000D02*
X99887000Y-94540000D01*
X100284071Y-95300000D02*
X99887000Y-95300000D01*
X102597000Y-97460000D02*
X102597000Y-98730000D01*
X102597000Y-98730000D02*
X101327000Y-98730000D01*
%TO.C,U1*%
X122420000Y-69075000D02*
X122990000Y-69075000D01*
X122420000Y-74375000D02*
X122420000Y-69075000D01*
X122420000Y-74375000D02*
X122990000Y-74375000D01*
X122990000Y-75765000D02*
X122990000Y-74375000D01*
X124610000Y-69075000D02*
X125530000Y-69075000D01*
X124610000Y-74375000D02*
X125530000Y-74375000D01*
X127150000Y-69075000D02*
X128070000Y-69075000D01*
X127150000Y-74375000D02*
X128070000Y-74375000D01*
X129690000Y-69075000D02*
X130610000Y-69075000D01*
X129690000Y-74375000D02*
X130610000Y-74375000D01*
X132230000Y-69075000D02*
X132800000Y-69075000D01*
X132230000Y-74375000D02*
X132800000Y-74375000D01*
X132800000Y-74375000D02*
X132800000Y-69075000D01*
%TD*%
M02*
