%TF.GenerationSoftware,KiCad,Pcbnew,9.0.5-9.0.5~ubuntu24.04.1*%
%TF.CreationDate,2025-11-18T16:55:04+01:00*%
%TF.ProjectId,Nodo 2 MySensor,4e6f646f-2032-4204-9d79-53656e736f72,rev?*%
%TF.SameCoordinates,Original*%
%TF.FileFunction,AssemblyDrawing,Bot*%
%FSLAX46Y46*%
G04 Gerber Fmt 4.6, Leading zero omitted, Abs format (unit mm)*
G04 Created by KiCad (PCBNEW 9.0.5-9.0.5~ubuntu24.04.1) date 2025-11-18 16:55:04*
%MOMM*%
%LPD*%
G01*
G04 APERTURE LIST*
%ADD10C,0.150000*%
%ADD11C,0.100000*%
G04 APERTURE END LIST*
D10*
X119970475Y-101724819D02*
X119970475Y-100724819D01*
X119970475Y-100724819D02*
X119732380Y-100724819D01*
X119732380Y-100724819D02*
X119589523Y-100772438D01*
X119589523Y-100772438D02*
X119494285Y-100867676D01*
X119494285Y-100867676D02*
X119446666Y-100962914D01*
X119446666Y-100962914D02*
X119399047Y-101153390D01*
X119399047Y-101153390D02*
X119399047Y-101296247D01*
X119399047Y-101296247D02*
X119446666Y-101486723D01*
X119446666Y-101486723D02*
X119494285Y-101581961D01*
X119494285Y-101581961D02*
X119589523Y-101677200D01*
X119589523Y-101677200D02*
X119732380Y-101724819D01*
X119732380Y-101724819D02*
X119970475Y-101724819D01*
X118970475Y-101724819D02*
X118970475Y-101058152D01*
X118970475Y-100724819D02*
X119018094Y-100772438D01*
X119018094Y-100772438D02*
X118970475Y-100820057D01*
X118970475Y-100820057D02*
X118922856Y-100772438D01*
X118922856Y-100772438D02*
X118970475Y-100724819D01*
X118970475Y-100724819D02*
X118970475Y-100820057D01*
X118065714Y-101058152D02*
X118065714Y-101867676D01*
X118065714Y-101867676D02*
X118113333Y-101962914D01*
X118113333Y-101962914D02*
X118160952Y-102010533D01*
X118160952Y-102010533D02*
X118256190Y-102058152D01*
X118256190Y-102058152D02*
X118399047Y-102058152D01*
X118399047Y-102058152D02*
X118494285Y-102010533D01*
X118065714Y-101677200D02*
X118160952Y-101724819D01*
X118160952Y-101724819D02*
X118351428Y-101724819D01*
X118351428Y-101724819D02*
X118446666Y-101677200D01*
X118446666Y-101677200D02*
X118494285Y-101629580D01*
X118494285Y-101629580D02*
X118541904Y-101534342D01*
X118541904Y-101534342D02*
X118541904Y-101248628D01*
X118541904Y-101248628D02*
X118494285Y-101153390D01*
X118494285Y-101153390D02*
X118446666Y-101105771D01*
X118446666Y-101105771D02*
X118351428Y-101058152D01*
X118351428Y-101058152D02*
X118160952Y-101058152D01*
X118160952Y-101058152D02*
X118065714Y-101105771D01*
X117589523Y-101724819D02*
X117589523Y-101058152D01*
X117589523Y-100724819D02*
X117637142Y-100772438D01*
X117637142Y-100772438D02*
X117589523Y-100820057D01*
X117589523Y-100820057D02*
X117541904Y-100772438D01*
X117541904Y-100772438D02*
X117589523Y-100724819D01*
X117589523Y-100724819D02*
X117589523Y-100820057D01*
X117256190Y-101058152D02*
X116875238Y-101058152D01*
X117113333Y-100724819D02*
X117113333Y-101581961D01*
X117113333Y-101581961D02*
X117065714Y-101677200D01*
X117065714Y-101677200D02*
X116970476Y-101724819D01*
X116970476Y-101724819D02*
X116875238Y-101724819D01*
X116113333Y-101724819D02*
X116113333Y-101201009D01*
X116113333Y-101201009D02*
X116160952Y-101105771D01*
X116160952Y-101105771D02*
X116256190Y-101058152D01*
X116256190Y-101058152D02*
X116446666Y-101058152D01*
X116446666Y-101058152D02*
X116541904Y-101105771D01*
X116113333Y-101677200D02*
X116208571Y-101724819D01*
X116208571Y-101724819D02*
X116446666Y-101724819D01*
X116446666Y-101724819D02*
X116541904Y-101677200D01*
X116541904Y-101677200D02*
X116589523Y-101581961D01*
X116589523Y-101581961D02*
X116589523Y-101486723D01*
X116589523Y-101486723D02*
X116541904Y-101391485D01*
X116541904Y-101391485D02*
X116446666Y-101343866D01*
X116446666Y-101343866D02*
X116208571Y-101343866D01*
X116208571Y-101343866D02*
X116113333Y-101296247D01*
X115494285Y-101724819D02*
X115589523Y-101677200D01*
X115589523Y-101677200D02*
X115637142Y-101581961D01*
X115637142Y-101581961D02*
X115637142Y-100724819D01*
X118113333Y-98184819D02*
X118113333Y-98899104D01*
X118113333Y-98899104D02*
X118160952Y-99041961D01*
X118160952Y-99041961D02*
X118256190Y-99137200D01*
X118256190Y-99137200D02*
X118399047Y-99184819D01*
X118399047Y-99184819D02*
X118494285Y-99184819D01*
X117732380Y-98184819D02*
X117065714Y-98184819D01*
X117065714Y-98184819D02*
X117494285Y-99184819D01*
X120089523Y-80865104D02*
X119613333Y-80865104D01*
X120184761Y-81150819D02*
X119851428Y-80150819D01*
X119851428Y-80150819D02*
X119518095Y-81150819D01*
X119184761Y-80484152D02*
X119184761Y-81150819D01*
X119184761Y-80579390D02*
X119137142Y-80531771D01*
X119137142Y-80531771D02*
X119041904Y-80484152D01*
X119041904Y-80484152D02*
X118899047Y-80484152D01*
X118899047Y-80484152D02*
X118803809Y-80531771D01*
X118803809Y-80531771D02*
X118756190Y-80627009D01*
X118756190Y-80627009D02*
X118756190Y-81150819D01*
X117851428Y-81150819D02*
X117851428Y-80627009D01*
X117851428Y-80627009D02*
X117899047Y-80531771D01*
X117899047Y-80531771D02*
X117994285Y-80484152D01*
X117994285Y-80484152D02*
X118184761Y-80484152D01*
X118184761Y-80484152D02*
X118279999Y-80531771D01*
X117851428Y-81103200D02*
X117946666Y-81150819D01*
X117946666Y-81150819D02*
X118184761Y-81150819D01*
X118184761Y-81150819D02*
X118279999Y-81103200D01*
X118279999Y-81103200D02*
X118327618Y-81007961D01*
X118327618Y-81007961D02*
X118327618Y-80912723D01*
X118327618Y-80912723D02*
X118279999Y-80817485D01*
X118279999Y-80817485D02*
X118184761Y-80769866D01*
X118184761Y-80769866D02*
X117946666Y-80769866D01*
X117946666Y-80769866D02*
X117851428Y-80722247D01*
X117232380Y-81150819D02*
X117327618Y-81103200D01*
X117327618Y-81103200D02*
X117375237Y-81007961D01*
X117375237Y-81007961D02*
X117375237Y-80150819D01*
X116708570Y-81150819D02*
X116803808Y-81103200D01*
X116803808Y-81103200D02*
X116851427Y-81055580D01*
X116851427Y-81055580D02*
X116899046Y-80960342D01*
X116899046Y-80960342D02*
X116899046Y-80674628D01*
X116899046Y-80674628D02*
X116851427Y-80579390D01*
X116851427Y-80579390D02*
X116803808Y-80531771D01*
X116803808Y-80531771D02*
X116708570Y-80484152D01*
X116708570Y-80484152D02*
X116565713Y-80484152D01*
X116565713Y-80484152D02*
X116470475Y-80531771D01*
X116470475Y-80531771D02*
X116422856Y-80579390D01*
X116422856Y-80579390D02*
X116375237Y-80674628D01*
X116375237Y-80674628D02*
X116375237Y-80960342D01*
X116375237Y-80960342D02*
X116422856Y-81055580D01*
X116422856Y-81055580D02*
X116470475Y-81103200D01*
X116470475Y-81103200D02*
X116565713Y-81150819D01*
X116565713Y-81150819D02*
X116708570Y-81150819D01*
X115518094Y-80484152D02*
X115518094Y-81293676D01*
X115518094Y-81293676D02*
X115565713Y-81388914D01*
X115565713Y-81388914D02*
X115613332Y-81436533D01*
X115613332Y-81436533D02*
X115708570Y-81484152D01*
X115708570Y-81484152D02*
X115851427Y-81484152D01*
X115851427Y-81484152D02*
X115946665Y-81436533D01*
X115518094Y-81103200D02*
X115613332Y-81150819D01*
X115613332Y-81150819D02*
X115803808Y-81150819D01*
X115803808Y-81150819D02*
X115899046Y-81103200D01*
X115899046Y-81103200D02*
X115946665Y-81055580D01*
X115946665Y-81055580D02*
X115994284Y-80960342D01*
X115994284Y-80960342D02*
X115994284Y-80674628D01*
X115994284Y-80674628D02*
X115946665Y-80579390D01*
X115946665Y-80579390D02*
X115899046Y-80531771D01*
X115899046Y-80531771D02*
X115803808Y-80484152D01*
X115803808Y-80484152D02*
X115613332Y-80484152D01*
X115613332Y-80484152D02*
X115518094Y-80531771D01*
X118113333Y-82944819D02*
X118113333Y-83659104D01*
X118113333Y-83659104D02*
X118160952Y-83801961D01*
X118160952Y-83801961D02*
X118256190Y-83897200D01*
X118256190Y-83897200D02*
X118399047Y-83944819D01*
X118399047Y-83944819D02*
X118494285Y-83944819D01*
X117208571Y-82944819D02*
X117399047Y-82944819D01*
X117399047Y-82944819D02*
X117494285Y-82992438D01*
X117494285Y-82992438D02*
X117541904Y-83040057D01*
X117541904Y-83040057D02*
X117637142Y-83182914D01*
X117637142Y-83182914D02*
X117684761Y-83373390D01*
X117684761Y-83373390D02*
X117684761Y-83754342D01*
X117684761Y-83754342D02*
X117637142Y-83849580D01*
X117637142Y-83849580D02*
X117589523Y-83897200D01*
X117589523Y-83897200D02*
X117494285Y-83944819D01*
X117494285Y-83944819D02*
X117303809Y-83944819D01*
X117303809Y-83944819D02*
X117208571Y-83897200D01*
X117208571Y-83897200D02*
X117160952Y-83849580D01*
X117160952Y-83849580D02*
X117113333Y-83754342D01*
X117113333Y-83754342D02*
X117113333Y-83516247D01*
X117113333Y-83516247D02*
X117160952Y-83421009D01*
X117160952Y-83421009D02*
X117208571Y-83373390D01*
X117208571Y-83373390D02*
X117303809Y-83325771D01*
X117303809Y-83325771D02*
X117494285Y-83325771D01*
X117494285Y-83325771D02*
X117589523Y-83373390D01*
X117589523Y-83373390D02*
X117637142Y-83421009D01*
X117637142Y-83421009D02*
X117684761Y-83516247D01*
D11*
%TO.C,J7*%
X102540000Y-97460000D02*
X102540000Y-100000000D01*
X102540000Y-100000000D02*
X132385000Y-100000000D01*
X132385000Y-100000000D02*
X133020000Y-99365000D01*
X133020000Y-97460000D02*
X102540000Y-97460000D01*
X133020000Y-99365000D02*
X133020000Y-97460000D01*
%TO.C,J6*%
X102540000Y-82855000D02*
X102540000Y-84760000D01*
X102540000Y-84760000D02*
X133020000Y-84760000D01*
X103175000Y-82220000D02*
X102540000Y-82855000D01*
X133020000Y-82220000D02*
X103175000Y-82220000D01*
X133020000Y-84760000D02*
X133020000Y-82220000D01*
%TD*%
M02*
